<?xml version="1.0" encoding="UTF-8" standalone="no"?>
<!-- Created with Inkscape (http://www.inkscape.org/) -->

<svg
   xmlns:dc="http://purl.org/dc/elements/1.1/"
   xmlns:cc="http://creativecommons.org/ns#"
   xmlns:rdf="http://www.w3.org/1999/02/22-rdf-syntax-ns#"
   xmlns:svg="http://www.w3.org/2000/svg"
   xmlns="http://www.w3.org/2000/svg"
   xmlns:sodipodi="http://sodipodi.sourceforge.net/DTD/sodipodi-0.dtd"
   xmlns:inkscape="http://www.inkscape.org/namespaces/inkscape"
   version="1.1"
   id="svg5098"
   xml:space="preserve"
   width="800"
   height="800"
   viewBox="0 0 800 800"
   sodipodi:docname="blue-dots.svg"
   inkscape:version="0.92.4 (5da689c313, 2019-01-14)"><metadata
     id="metadata5104"><rdf:RDF><cc:Work
         rdf:about=""><dc:format>image/svg+xml</dc:format><dc:type
           rdf:resource="http://purl.org/dc/dcmitype/StillImage" /><dc:title></dc:title></cc:Work></rdf:RDF></metadata><defs
     id="defs5102"><clipPath
       clipPathUnits="userSpaceOnUse"
       id="clipPath5114"><path
         d="M 0,600 H 600 V 0 H 0 Z"
         id="path5112"
         inkscape:connector-curvature="0" /></clipPath></defs><sodipodi:namedview
     pagecolor="#ffffff"
     bordercolor="#666666"
     borderopacity="1"
     objecttolerance="10"
     gridtolerance="10"
     guidetolerance="10"
     inkscape:pageopacity="0"
     inkscape:pageshadow="2"
     inkscape:window-width="1920"
     inkscape:window-height="1018"
     id="namedview5100"
     showgrid="false"
     inkscape:zoom="0.65564136"
     inkscape:cx="430.50847"
     inkscape:cy="433.89831"
     inkscape:window-x="-8"
     inkscape:window-y="-8"
     inkscape:window-maximized="1"
     inkscape:current-layer="g5106" /><g
     id="g5106"
     inkscape:groupmode="layer"
     inkscape:label="shape-46-publicdomainvectors [Converted]"
     transform="matrix(1.3333333,0,0,-1.3333333,0,800)"><g
       id="g5108"><g
         id="g5110"
         clip-path="url(#clipPath5114)"><path
           d="m 309.438,276.182 c 3.292,-0.657 6.504,1.499 7.161,4.787 0.647,3.289 -1.484,6.504 -4.785,7.164 -3.299,0.644 -6.503,-1.484 -7.163,-4.795 -0.657,-3.289 1.491,-6.488 4.787,-7.156 m 92.414,-25.828 c 7.25,-1.445 14.3,3.277 15.75,10.53 1.443,7.253 -3.27,14.307 -10.52,15.745 -7.256,1.444 -14.311,-3.275 -15.76,-10.531 -1.444,-7.244 3.278,-14.308 10.53,-15.744 m 66.248,0.481 c 1.837,9.226 -4.156,18.211 -13.388,20.043 -9.233,1.837 -18.218,-4.154 -20.048,-13.396 -1.843,-9.221 4.164,-18.206 13.397,-20.039 9.233,-1.843 18.206,4.159 20.039,13.392 m 26.17,-26.31 c 11.209,-2.236 22.112,5.04 24.34,16.258 2.233,11.225 -5.054,22.12 -16.268,24.349 -11.214,2.236 -22.117,-5.056 -24.346,-16.274 -2.228,-11.209 5.053,-22.104 16.274,-24.333 m -138.623,38.743 c 5.269,-1.045 10.402,2.384 11.451,7.661 1.051,5.276 -2.377,10.405 -7.653,11.458 -5.281,1.037 -10.402,-2.393 -11.455,-7.673 -1.049,-5.276 2.377,-10.398 7.657,-11.446 m 93.477,-78.882 c 3.841,9.263 -0.566,19.91 -9.843,23.755 -9.271,3.828 -19.906,-0.576 -23.746,-9.847 -3.844,-9.276 0.563,-19.907 9.843,-23.747 9.268,-3.84 19.902,0.558 23.746,9.839 M 334.339,231.93 c -2.198,-5.3 0.321,-11.372 5.618,-13.57 5.308,-2.198 11.377,0.318 13.578,5.614 2.194,5.3 -0.33,11.377 -5.626,13.571 -5.3,2.193 -11.376,-0.315 -13.57,-5.615 m 66.985,-27.758 c 3.025,7.292 -0.439,15.648 -7.726,18.672 -7.285,3.01 -15.641,-0.447 -18.66,-7.734 -3.022,-7.288 0.441,-15.644 7.73,-18.661 7.287,-3.02 15.643,0.444 18.656,7.723 m -95.59,39.6 c 1.375,3.312 -0.197,7.11 -3.513,8.492 -3.309,1.367 -7.106,-0.218 -8.473,-3.518 -1.378,-3.319 0.19,-7.113 3.498,-8.479 3.313,-1.379 7.121,0.202 8.488,3.505 m -27.513,-36.323 c 3.168,-2.112 7.451,-1.273 9.567,1.903 2.116,3.165 1.266,7.439 -1.906,9.551 -3.161,2.128 -7.444,1.274 -9.563,-1.886 -2.109,-3.177 -1.255,-7.455 1.902,-9.568 m 74.961,-60.043 c 6.964,-4.651 16.378,-2.78 21.033,4.194 4.659,6.958 2.783,16.38 -4.186,21.028 -6.959,4.668 -16.374,2.78 -21.037,-4.178 -4.644,-6.972 -2.771,-16.385 4.19,-21.044 m -37.481,30.022 c 5.071,-3.386 11.912,-2.027 15.307,3.04 3.381,5.075 2.014,11.908 -3.041,15.302 -5.078,3.386 -11.924,2.019 -15.31,-3.041 -3.382,-5.066 -2.026,-11.923 3.044,-15.301 m 74.953,-60.043 c 8.868,-5.917 20.859,-3.533 26.784,5.327 5.919,8.868 3.529,20.858 -5.332,26.783 -8.864,5.925 -20.854,3.541 -26.776,-5.327 -5.92,-8.86 -3.536,-20.858 5.324,-26.783 m -53.391,10.491 c -6.275,6.27 -16.441,6.27 -22.699,0 -6.271,-6.274 -6.271,-16.432 0,-22.706 6.258,-6.267 16.424,-6.267 22.699,0 6.266,6.274 6.266,16.432 0,22.706 m 36.925,-59.623 c 7.982,7.975 7.982,20.92 0,28.894 -7.983,7.977 -20.92,7.977 -28.9,0 -7.975,-7.974 -7.975,-20.919 0,-28.894 7.98,-7.991 20.917,-7.991 28.9,0 m -73.85,73.846 c 4.565,4.554 4.565,11.955 0,16.505 -4.559,4.566 -11.952,4.566 -16.518,0 -4.551,-4.55 -4.551,-11.951 0,-16.505 4.566,-4.563 11.959,-4.563 16.518,0 m -47.242,47.249 c -2.85,-2.858 -2.85,-7.478 0,-10.328 2.849,-2.85 7.478,-2.85 10.317,0 2.849,2.85 2.849,7.47 0,10.328 -2.839,2.841 -7.468,2.841 -10.317,0 M 224.98,166.777 c -3.529,-2.352 -4.483,-7.132 -2.131,-10.67 2.369,-3.544 7.152,-4.484 10.686,-2.124 3.536,2.361 4.488,7.145 2.132,10.686 -2.365,3.525 -7.153,4.484 -10.687,2.108 M 291.822,66.745 c 7.782,5.196 9.878,15.718 4.688,23.499 -5.204,7.782 -15.726,9.862 -23.508,4.675 -7.78,-5.202 -9.869,-15.725 -4.674,-23.498 5.191,-7.781 15.721,-9.87 23.494,-4.676 m 29.149,-43.626 c 9.904,6.609 12.564,20.013 5.955,29.92 -6.619,9.901 -20.012,12.565 -29.912,5.941 -9.897,-6.608 -12.561,-20.003 -5.953,-29.92 6.617,-9.885 20.012,-12.549 29.91,-5.941 m -58.288,87.237 c 5.652,3.783 7.174,11.431 3.4,17.1 -3.781,5.653 -11.434,7.168 -17.087,3.402 -5.665,-3.79 -7.191,-11.439 -3.406,-17.099 3.786,-5.655 11.439,-7.177 17.093,-3.403 M 239.607,37.835 c 9.105,3.766 13.423,14.195 9.653,23.297 -3.762,9.093 -14.196,13.419 -23.289,9.644 -9.097,-3.766 -13.423,-14.211 -9.653,-23.296 3.766,-9.094 14.188,-13.412 23.289,-9.645 m -20.163,48.689 c 6.62,2.743 9.761,10.322 7.016,16.945 -2.737,6.608 -10.32,9.746 -16.933,7.012 -6.62,-2.733 -9.769,-10.32 -7.024,-16.945 2.746,-6.608 10.325,-9.753 16.941,-7.012 m -15.776,59.283 c -1.712,4.134 -6.457,6.091 -10.588,4.376 -4.135,-1.705 -6.104,-6.45 -4.388,-10.58 1.709,-4.132 6.454,-6.105 10.589,-4.393 4.135,1.721 6.095,6.462 4.387,10.597 M 182.593,19.616 c 10.137,2.012 16.723,11.867 14.708,22.016 -2.015,10.135 -11.866,16.72 -22.008,14.693 -10.134,-2.012 -16.719,-11.867 -14.7,-22.001 2.011,-10.134 11.866,-16.725 22,-14.708 m -10.321,51.921 c 7.366,1.477 12.161,8.635 10.693,16.013 -1.467,7.369 -8.635,12.153 -16.004,10.693 -7.374,-1.46 -12.165,-8.643 -10.698,-16.005 1.465,-7.377 8.632,-12.161 16.009,-10.701 m -20.334,58.614 c 0.913,-4.613 5.401,-7.602 10.002,-6.693 4.605,0.924 7.599,5.404 6.683,10.018 -0.913,4.596 -5.39,7.601 -9.998,6.677 -4.613,-0.916 -7.603,-5.397 -6.687,-10.002 m -28.988,4.023 c -3.344,0 -6.046,-2.702 -6.046,-6.034 0,-3.355 2.702,-6.041 6.046,-6.041 3.331,0 6.033,2.686 6.033,6.041 0,3.332 -2.702,6.034 -6.033,6.034 m -9.664,-53.877 c 0,-5.343 4.325,-9.66 9.664,-9.66 5.339,0 9.664,4.317 9.664,9.66 0,5.335 -4.325,9.659 -9.664,9.659 -5.339,0 -9.664,-4.324 -9.664,-9.659 M 128.801,0.483 c -1.823,0.672 -3.794,1.039 -5.851,1.039 -2.057,0 -4.029,-0.367 -5.853,-1.039 z m -5.851,18.684 c 7.338,0 13.279,5.947 13.279,13.287 0,7.337 -5.941,13.294 -13.279,13.294 -7.346,0 -13.291,-5.957 -13.291,-13.294 0,-7.34 5.945,-13.287 13.291,-13.287 M 72.995,0.483 C 70.457,4.616 66.271,7.722 61.134,8.745 53.519,10.258 46.07,6.738 42.234,0.483 Z m 7.858,34.72 c 1.53,7.687 -3.462,15.143 -11.142,16.672 -7.674,1.522 -15.137,-3.464 -16.665,-11.145 -1.522,-7.664 3.462,-15.134 11.14,-16.664 7.68,-1.521 15.137,3.464 16.667,11.137 m 5.54,47.664 c 1.114,5.591 -2.512,11.019 -8.102,12.129 -5.588,1.111 -11.004,-2.508 -12.121,-8.091 -1.105,-5.584 2.522,-11.011 8.103,-12.122 5.584,-1.111 11.008,2.508 12.12,8.084 m 5.539,47.68 c 0.697,3.499 -1.575,6.881 -5.056,7.583 -3.49,0.687 -6.882,-1.572 -7.586,-5.067 -0.689,-3.478 1.582,-6.88 5.073,-7.571 3.488,-0.707 6.876,1.561 7.569,5.055 m -44.83,5.833 c 3.492,-1.444 7.498,0.209 8.944,3.703 1.444,3.487 -0.214,7.494 -3.706,8.946 -3.493,1.445 -7.5,-0.213 -8.944,-3.719 -1.451,-3.488 0.209,-7.495 3.706,-8.93 m -19.888,-48 c 5.598,-2.314 12.004,0.343 14.316,5.925 2.322,5.599 -0.342,11.998 -5.924,14.312 -5.59,2.322 -11.999,-0.334 -14.319,-5.926 -2.308,-5.589 0.342,-11.996 5.927,-14.311 M 1.186,45.087 c 1.552,-2.013 3.636,-3.659 6.152,-4.704 7.689,-3.177 16.498,0.472 19.682,8.153 3.184,7.679 -0.47,16.501 -8.154,19.677 -6.422,2.668 -13.628,0.551 -17.68,-4.7 z m 0,-44.604 h 10.189 c 0.42,0.726 0.797,1.488 1.127,2.283 4.06,9.793 -0.588,21.005 -10.366,25.058 -0.315,0.131 -0.632,0.252 -0.95,0.364 z m 0,116.844 c 0.64,2.164 0.622,4.444 0,6.559 z m 11.424,37.026 c 3.327,-2.217 7.828,-1.332 10.052,1.995 2.226,3.336 1.336,7.84 -2.002,10.06 -3.326,2.229 -7.826,1.328 -10.046,-1.995 -2.227,-3.332 -1.334,-7.828 1.996,-10.06 M 1.186,510.799 c 2.991,4.398 3.203,10.355 0.064,15.054 -0.021,0.032 -0.042,0.064 -0.064,0.095 z m 20.123,-39.198 c 3.857,2.58 4.896,7.802 2.318,11.666 -2.576,3.852 -7.8,4.894 -11.664,2.312 -3.861,-2.568 -4.902,-7.799 -2.316,-11.654 2.584,-3.867 7.804,-4.908 11.662,-2.324 M 1.186,579.304 c 2.877,-6.417 10.374,-9.416 16.921,-6.712 6.675,2.764 9.841,10.417 7.081,17.086 -2.771,6.672 -10.41,9.83 -17.086,7.069 -3.205,-1.324 -5.598,-3.776 -6.916,-6.705 z m 50.808,-88.512 c 3.032,1.246 4.469,4.729 3.214,7.763 -1.255,3.029 -4.728,4.464 -7.763,3.213 -3.028,-1.262 -4.472,-4.727 -3.214,-7.765 1.258,-3.025 4.725,-4.474 7.763,-3.211 m -29.366,46.051 c 2.012,-4.86 7.576,-7.16 12.422,-5.156 4.853,2.013 7.159,7.573 5.142,12.431 -2.005,4.847 -7.567,7.144 -12.421,5.138 -4.845,-2.009 -7.153,-7.568 -5.143,-12.413 m 30.377,63.56 c 0.031,-0.7 0.116,-1.407 0.257,-2.115 1.506,-7.568 8.857,-12.475 16.415,-10.97 6.441,1.275 10.956,6.804 11.22,13.085 z m 21.294,-36.361 c -5.498,-1.097 -9.065,-6.433 -7.971,-11.934 1.088,-5.502 6.441,-9.08 11.933,-7.977 5.502,1.093 9.076,6.436 7.979,11.935 -1.093,5.502 -6.435,9.075 -11.941,7.976 m 5.096,-58.116 c 0.679,-3.434 4.024,-5.665 7.457,-4.989 3.436,0.691 5.667,4.032 4.987,7.464 -0.689,3.435 -4.028,5.68 -7.465,4.988 -3.428,-0.678 -5.659,-4.026 -4.979,-7.463 m 43.555,11.668 c -3.724,0 -6.753,-3.026 -6.753,-6.75 0,-3.728 3.029,-6.752 6.753,-6.752 3.727,0 6.744,3.024 6.744,6.752 0,3.724 -3.017,6.75 -6.744,6.75 m 0,51.88 c -5.965,0 -10.799,-4.822 -10.799,-10.792 0,-5.97 4.834,-10.792 10.799,-10.792 5.956,0 10.794,4.822 10.794,10.792 0,5.97 -4.838,10.792 -10.794,10.792 m -13.532,30.929 c 2.329,-5.149 7.506,-8.73 13.532,-8.73 6.017,0 11.198,3.581 13.529,8.73 z m 53.803,0 c 0.263,-7.111 5.365,-13.376 12.658,-14.823 8.519,-1.707 16.801,3.83 18.498,12.356 0.164,0.827 0.26,1.651 0.292,2.467 z m -4.829,-44.08 c -1.235,-6.205 2.795,-12.233 8.992,-13.456 6.197,-1.241 12.223,2.792 13.449,8.985 1.235,6.199 -2.794,12.225 -8.996,13.456 -6.189,1.236 -12.211,-2.798 -13.445,-8.985 m -5.126,-47.756 c -0.765,-3.879 1.743,-7.639 5.622,-8.412 3.872,-0.767 7.637,1.739 8.403,5.616 0.772,3.868 -1.744,7.646 -5.615,8.411 -3.875,0.774 -7.637,-1.747 -8.41,-5.615 m 74.167,91.836 c -4.364,-1.489 -8.091,-4.776 -9.993,-9.366 -3.517,-8.484 0.505,-18.211 8.989,-21.715 8.484,-3.515 18.206,0.515 21.716,8.995 3.522,8.475 -0.52,18.194 -8.992,21.708 -0.332,0.137 -0.665,0.263 -1,0.378 z m -24.118,-55.307 c -2.559,-6.164 0.381,-13.233 6.542,-15.789 6.17,-2.557 13.241,0.376 15.788,6.542 2.559,6.166 -0.369,13.233 -6.539,15.789 -6.158,2.559 -13.24,-0.376 -15.791,-6.542 m -4.248,-41.845 c -3.855,1.601 -8.282,-0.232 -9.862,-4.086 -1.604,-3.858 0.229,-8.269 4.081,-9.869 3.856,-1.589 8.281,0.233 9.874,4.083 1.588,3.856 -0.241,8.284 -4.093,9.872 m 93.074,69.459 c -8.037,5.358 -18.91,3.202 -24.283,-4.836 -5.37,-8.035 -3.211,-18.909 4.827,-24.283 8.041,-5.371 18.917,-3.211 24.29,4.825 5.366,8.049 3.2,18.92 -4.834,24.294 m -58.455,-87.504 c -3.662,2.445 -8.608,1.462 -11.042,-2.195 -2.439,-3.657 -1.46,-8.596 2.201,-11.035 3.646,-2.442 8.592,-1.464 11.035,2.195 2.431,3.656 1.456,8.597 -2.194,11.035 m 29.218,43.751 c -5.84,3.902 -13.745,2.336 -17.659,-3.518 -3.906,-5.835 -2.33,-13.743 3.517,-17.654 5.852,-3.903 13.753,-2.336 17.656,3.513 3.917,5.842 2.345,13.747 -3.514,17.659 m 19.72,-30.879 c -5.226,-5.221 -5.226,-13.689 0,-18.912 5.227,-5.231 13.694,-5.231 18.921,0 5.219,5.223 5.219,13.691 0,18.912 -5.227,5.23 -13.694,5.23 -18.921,0 m 30.282,37.373 c -7.179,-7.181 -7.179,-18.826 0,-26.011 7.183,-7.183 18.827,-7.183 26.01,0 7.18,7.185 7.18,18.83 0,26.011 -7.183,7.183 -18.827,7.183 -26.01,0 m -48.74,-74.749 c -3.262,3.273 -8.566,3.273 -11.828,0 -3.261,-3.257 -3.261,-8.546 0,-11.815 3.262,-3.261 8.566,-3.261 11.828,0 3.265,3.269 3.265,8.558 0,11.815 m 90.238,29.038 c -5.96,-3.984 -7.554,-12.033 -3.58,-17.986 3.977,-5.958 12.03,-7.557 17.986,-3.577 5.956,3.976 7.559,12.028 3.576,17.976 -3.976,5.955 -12.032,7.555 -17.982,3.587 m -69.077,-68.844 c 2.714,1.813 3.432,5.471 1.63,8.177 -1.809,2.702 -5.471,3.436 -8.181,1.623 -2.698,-1.805 -3.428,-5.463 -1.626,-8.173 1.809,-2.71 5.474,-3.432 8.177,-1.627 m 144.698,127.871 c -9.198,-6.142 -11.678,-18.585 -5.529,-27.788 6.15,-9.201 18.599,-11.68 27.794,-5.536 9.201,6.156 11.675,18.597 5.536,27.799 -6.154,9.202 -18.602,11.681 -27.801,5.525 M 327.07,444.538 c 4.328,2.885 5.498,8.752 2.606,13.078 -2.897,4.324 -8.76,5.489 -13.086,2.593 -4.336,-2.881 -5.494,-8.744 -2.606,-13.066 2.902,-4.329 8.756,-5.501 13.086,-2.605 m 65.149,74.718 c -7.583,-5.061 -9.621,-15.319 -4.559,-22.897 5.064,-7.567 15.314,-9.608 22.893,-4.541 7.576,5.058 9.61,15.312 4.547,22.879 -5.059,7.578 -15.314,9.624 -22.881,4.559 M 375.332,424.03 c 2.929,-7.068 11.031,-10.429 18.098,-7.498 7.075,2.931 10.422,11.038 7.498,18.105 -2.932,7.067 -11.034,10.422 -18.094,7.494 -7.074,-2.928 -10.429,-11.035 -7.502,-18.101 m 40.707,16.866 c 3.729,-9.007 14.041,-13.271 23.041,-9.543 8.992,3.727 13.26,14.04 9.536,23.032 -3.727,8.992 -14.044,13.263 -23.032,9.544 -8.997,-3.728 -13.268,-14.04 -9.545,-23.033 M 297.324,398.535 c -3.207,-1.332 -4.736,-5.012 -3.404,-8.223 1.327,-3.212 5.008,-4.745 8.223,-3.41 3.211,1.328 4.741,5.009 3.41,8.221 -1.329,3.21 -5.014,4.74 -8.229,3.412 m 187.393,47.626 c 10.924,4.535 16.111,17.053 11.591,27.971 -4.52,10.923 -17.058,16.12 -27.98,11.588 -10.921,-4.521 -16.104,-17.039 -11.586,-27.973 4.529,-10.918 17.054,-16.105 27.975,-11.586 M 340.082,420.326 c -5.145,-2.124 -7.584,-8.022 -5.456,-13.163 2.132,-5.141 8.025,-7.575 13.158,-5.452 5.149,2.136 7.595,8.026 5.464,13.159 -2.136,5.156 -8.029,7.595 -13.166,5.456 m 107.645,-17.108 c -10.162,-2.019 -16.758,-11.897 -14.743,-22.062 2.031,-10.165 11.9,-16.762 22.066,-14.739 10.148,2.02 16.759,11.896 14.73,22.062 -2.018,10.157 -11.896,16.758 -22.053,14.739 m -40.381,-42.182 c 7.983,1.584 13.163,9.341 11.578,17.328 -1.588,7.979 -9.35,13.163 -17.332,11.575 -7.987,-1.592 -13.166,-9.342 -11.582,-17.333 1.588,-7.975 9.353,-13.163 17.336,-11.57 m -103.293,-5.53 c 0.726,-3.618 4.256,-5.979 7.883,-5.249 3.629,0.722 5.974,4.247 5.26,7.866 -0.714,3.634 -4.244,5.995 -7.874,5.265 -3.631,-0.721 -5.987,-4.247 -5.269,-7.882 m 55.586,0.128 c 5.8,1.158 9.575,6.804 8.418,12.6 -1.15,5.821 -6.795,9.583 -12.604,8.437 -5.797,-1.161 -9.574,-6.79 -8.418,-12.61 1.149,-5.81 6.795,-9.58 12.604,-8.427 m 66.127,-36.144 c 0,8.713 -7.067,15.787 -15.787,15.78 -8.717,0.007 -15.784,-7.067 -15.784,-15.78 0,-8.713 7.067,-15.795 15.784,-15.78 8.72,-0.015 15.787,7.067 15.787,15.78 m -63.627,11.482 c -6.34,0.011 -11.481,-5.145 -11.481,-11.482 -0.004,-6.344 5.137,-11.481 11.481,-11.493 6.34,0.012 11.482,5.16 11.494,11.493 -0.012,6.337 -5.154,11.482 -11.494,11.482 M 477.915,319.49 c -0.008,11.097 -9,20.086 -20.089,20.086 -11.109,0 -20.104,-8.989 -20.104,-20.086 0.007,-11.096 8.995,-20.094 20.104,-20.094 11.101,0 20.089,8.998 20.089,20.094 m -170.786,0 c 0,-3.965 3.211,-7.183 7.17,-7.183 3.969,0 7.176,3.215 7.176,7.183 0,3.968 -3.207,7.176 -7.176,7.167 -3.959,0 -7.17,-3.21 -7.17,-7.167"
           style="fill:#00adef;fill-opacity:1;fill-rule:nonzero;stroke:none"
           id="path5116"
           inkscape:connector-curvature="0" /></g></g></g></svg>