<?xml version="1.0" encoding="UTF-8" standalone="no"?>
<!-- Created with Inkscape (http://www.inkscape.org/) -->

<svg
   xmlns:dc="http://purl.org/dc/elements/1.1/"
   xmlns:cc="http://creativecommons.org/ns#"
   xmlns:rdf="http://www.w3.org/1999/02/22-rdf-syntax-ns#"
   xmlns:svg="http://www.w3.org/2000/svg"
   xmlns="http://www.w3.org/2000/svg"
   xmlns:sodipodi="http://sodipodi.sourceforge.net/DTD/sodipodi-0.dtd"
   xmlns:inkscape="http://www.inkscape.org/namespaces/inkscape"
   version="1.1"
   id="svg847"
   xml:space="preserve"
   width="800"
   height="800"
   viewBox="0 0 800 800"
   sodipodi:docname="curved-tiled-pattern-clip-art.svg"
   inkscape:version="0.92.4 (5da689c313, 2019-01-14)"><metadata
     id="metadata853"><rdf:RDF><cc:Work
         rdf:about=""><dc:format>image/svg+xml</dc:format><dc:type
           rdf:resource="http://purl.org/dc/dcmitype/StillImage" /><dc:title></dc:title></cc:Work></rdf:RDF></metadata><defs
     id="defs851"><clipPath
       clipPathUnits="userSpaceOnUse"
       id="clipPath863"><path
         d="M 0,600 H 600 V 0 H 0 Z"
         id="path861"
         inkscape:connector-curvature="0" /></clipPath><linearGradient
       x1="0"
       y1="0"
       x2="1"
       y2="0"
       gradientUnits="userSpaceOnUse"
       gradientTransform="matrix(599.43286,0,0,-595.59723,0.6328125,300.00098)"
       spreadMethod="pad"
       id="linearGradient897"><stop
         style="stop-opacity:1;stop-color:#ed1c24"
         offset="0"
         id="stop877" /><stop
         style="stop-opacity:1;stop-color:#f68712"
         offset="0.12538263"
         id="stop879" /><stop
         style="stop-opacity:1;stop-color:#f68712"
         offset="0.252809"
         id="stop881" /><stop
         style="stop-opacity:1;stop-color:#f68712"
         offset="0.26050461"
         id="stop883" /><stop
         style="stop-opacity:1;stop-color:#80cc28"
         offset="0.516854"
         id="stop885" /><stop
         style="stop-opacity:1;stop-color:#00adef"
         offset="0.752809"
         id="stop887" /><stop
         style="stop-opacity:1;stop-color:#176fc1"
         offset="0.96116397"
         id="stop889" /><stop
         style="stop-opacity:1;stop-color:#176fc1"
         offset="0.994382"
         id="stop891" /><stop
         style="stop-opacity:1;stop-color:#176fc1"
         offset="0.99839661"
         id="stop893" /><stop
         style="stop-opacity:1;stop-color:#176fc1"
         offset="1"
         id="stop895" /></linearGradient></defs><sodipodi:namedview
     pagecolor="#ffffff"
     bordercolor="#666666"
     borderopacity="1"
     objecttolerance="10"
     gridtolerance="10"
     guidetolerance="10"
     inkscape:pageopacity="0"
     inkscape:pageshadow="2"
     inkscape:window-width="1920"
     inkscape:window-height="1018"
     id="namedview849"
     showgrid="false"
     inkscape:zoom="0.84613176"
     inkscape:cx="413.55932"
     inkscape:cy="403.38983"
     inkscape:window-x="-8"
     inkscape:window-y="-8"
     inkscape:window-maximized="1"
     inkscape:current-layer="g855" /><g
     id="g855"
     inkscape:groupmode="layer"
     inkscape:label="vector-pattern-4-publicdomainvectors.org"
     transform="matrix(1.3333333,0,0,-1.3333333,0,800)"><g
       id="g857"><g
         id="g859"
         clip-path="url(#clipPath863)"><g
           id="g865"><g
             id="g867"><g
               id="g873"><g
                 id="g875"><path
                   d="m 0.633,38.53 c 1.68,-2.259 3.374,-4.447 5.011,-6.645 3.836,-1.004 7.64,-1.948 11.468,-2.995 -2.39,3.22 -4.82,6.491 -7.27,9.781 -3.095,0.866 -6.172,1.774 -9.209,2.601 z M 25.684,17.763 c -2.379,3.058 -4.733,6.156 -7.131,9.227 -3.77,0.897 -7.614,1.947 -11.432,2.947 2.466,-3.335 4.947,-6.322 7.327,-9.467 3.736,-0.875 7.528,-1.923 11.236,-2.707 M 34.083,7.264 c -2.387,2.765 -4.661,5.731 -6.986,8.705 -3.768,0.908 -7.465,1.844 -11.199,2.663 2.444,-3.02 4.779,-6.032 7.179,-8.93 3.672,-0.832 7.3,-1.644 11.006,-2.438 M 0.633,11.419 C 2.405,9.304 4.187,7.176 5.945,5.047 9.527,4.35 13.125,3.414 16.693,2.673 14.272,5.45 11.844,8.479 9.414,11.396 6.482,12.087 3.559,12.773 0.633,13.471 Z m 0,51.785 C 2.128,62.735 3.62,62.279 5.111,61.841 3.599,64.048 2.109,66.324 0.633,68.619 Z m 0,-8.896 C 1.046,53.701 1.459,53.096 1.87,52.493 5.84,51.338 9.875,50.094 13.857,48.97 11.444,52.397 8.979,55.995 6.581,59.638 4.59,60.215 2.609,60.83 0.633,61.456 Z M 22.457,36.846 c -2.365,3.268 -4.763,6.69 -7.155,10.051 C 11.291,48.033 7.347,49.152 3.355,50.364 5.798,46.878 8.28,43.5 10.72,40.037 14.658,39 18.526,37.912 22.457,36.846 m 8.446,-11.43 c -2.364,3.064 -4.655,6.266 -7.026,9.478 -3.91,1 -7.815,2.051 -11.698,3.138 2.42,-3.268 4.793,-6.576 7.23,-9.729 3.797,-0.978 7.67,-2.02 11.494,-2.887 m 8.289,-10.789 c -2.319,2.863 -4.59,5.973 -6.898,8.949 -3.836,0.942 -7.656,1.931 -11.453,2.833 2.348,-3.078 4.768,-6.172 7.092,-9.177 3.746,-0.857 7.5,-1.796 11.259,-2.605 m 8.12,-10.182 c -2.244,2.836 -4.557,5.487 -6.757,8.448 -3.74,0.798 -7.452,1.651 -11.22,2.56 2.352,-2.973 4.657,-5.815 6.95,-8.667 3.68,-0.788 7.338,-1.572 11.027,-2.341 M 50.955,0.03 C 50.198,0.942 49.432,1.862 48.652,2.802 44.988,3.616 41.343,4.245 37.661,5.1 39.049,3.4 40.457,1.702 41.853,0.03 Z M 0.633,85.262 C 1.292,85.033 1.952,84.806 2.612,84.579 1.95,85.672 1.291,86.776 0.633,87.888 Z m 0,-11.218 C 4.167,72.881 7.726,71.753 11.285,70.538 8.906,74.343 6.478,78.209 4.066,82.179 2.924,82.566 1.779,82.961 0.633,83.363 Z m 0,-2.333 c 2.334,-3.587 4.636,-7.06 6.932,-10.636 4.082,-1.376 8.196,-2.463 12.282,-3.753 -2.359,3.588 -4.733,7.23 -7.126,10.957 -4.036,1.375 -8.064,2.534 -12.088,3.925 z M 28.279,44.876 c -2.315,3.408 -4.653,6.787 -7.019,10.318 -4.07,1.083 -8.182,2.388 -12.238,3.696 2.44,-3.57 4.828,-7.108 7.236,-10.614 4.002,-1.065 8.027,-2.313 12.021,-3.4 m 8.299,-11.735 c -2.303,3.277 -4.633,6.422 -6.906,9.73 -4.032,1.151 -7.978,2.172 -11.98,3.347 2.395,-3.444 4.763,-6.695 7.115,-9.998 3.909,-1.058 7.863,-2.012 11.771,-3.079 m 8.15,-11.07 c -2.224,3.024 -4.518,6.028 -6.783,9.183 -3.891,0.877 -7.864,2.056 -11.726,3.024 2.342,-3.191 4.678,-6.297 6.986,-9.426 3.787,-0.797 7.672,-1.808 11.523,-2.781 M 60.567,1.746 c -2.189,2.647 -4.355,5.443 -6.524,8.19 -3.79,0.905 -7.499,1.654 -11.242,2.456 2.256,-2.821 4.508,-5.651 6.72,-8.407 3.695,-0.754 7.338,-1.452 11.046,-2.239 M 61.958,0.03 C 61.925,0.071 61.892,0.111 61.859,0.151 58.176,0.879 54.527,1.602 50.85,2.354 51.49,1.578 52.127,0.803 52.762,0.03 Z M 0.633,109.194 c 0.161,-0.059 0.322,-0.12 0.484,-0.179 -0.162,0.291 -0.323,0.581 -0.484,0.873 z m 0,-12.209 c 2.988,-1.087 5.982,-2.143 8.98,-3.293 -2.377,4.116 -4.763,8.345 -7.076,12.701 -0.635,0.249 -1.269,0.499 -1.904,0.748 z m 0,-5.716 c 1.5,-2.575 3.014,-5.098 4.547,-7.582 4.28,-1.575 8.562,-2.883 12.864,-4.402 -2.382,3.806 -4.727,7.851 -7.02,11.943 C 7.545,92.441 4.073,93.69 0.633,94.974 Z M 34.623,52.96 c -2.29,3.43 -4.562,7.015 -6.855,10.587 -4.166,1.305 -8.387,2.604 -12.544,3.931 2.339,-3.719 4.709,-7.355 7.081,-10.894 4.087,-1.285 8.197,-2.37 12.318,-3.624 m 8.118,-12.031 c -2.289,3.221 -4.507,6.647 -6.755,9.974 -4.084,1.229 -8.185,2.361 -12.274,3.566 2.333,-3.44 4.663,-6.899 6.974,-10.26 4.003,-1.077 8.065,-2.362 12.055,-3.28 m 7.99,-11.354 c -2.226,3.112 -4.424,6.233 -6.648,9.414 -4.001,1.093 -7.999,2.083 -12.013,3.227 2.289,-3.322 4.585,-6.505 6.862,-9.679 3.925,-1.011 7.864,-1.979 11.799,-2.962 m 7.851,-10.716 c -2.147,2.898 -4.379,5.856 -6.534,8.89 -3.968,0.974 -7.88,1.96 -11.754,2.908 2.251,-3.063 4.471,-6.173 6.738,-9.128 3.824,-0.886 7.735,-1.869 11.55,-2.67 M 66.287,8.736 c -2.095,2.724 -4.22,5.595 -6.411,8.395 -3.753,0.791 -7.701,1.744 -11.506,2.621 2.209,-2.869 4.443,-5.722 6.612,-8.618 3.763,-0.782 7.582,-1.652 11.305,-2.398 M 73.148,0.03 c -1.875,2.346 -3.719,4.751 -5.591,7.073 -3.778,0.865 -7.504,1.641 -11.264,2.352 2.172,-2.83 4.31,-5.466 6.485,-8.148 2.15,-0.431 4.321,-0.856 6.5,-1.277 z M 0.633,135.353 c 0.1,-0.043 0.2,-0.086 0.3,-0.129 -0.1,0.207 -0.2,0.414 -0.3,0.622 z m 0,-13.419 c 2.826,-1.187 5.65,-2.342 8.486,-3.419 -2.281,4.589 -4.565,9.145 -6.823,13.852 -0.554,0.251 -1.108,0.498 -1.663,0.745 z m 0,-8.083 c 1.052,-1.989 2.111,-3.949 3.174,-5.88 4.485,-1.712 9.036,-3.377 13.494,-5.159 -2.29,4.243 -4.565,8.553 -6.816,13.014 -3.297,1.243 -6.589,2.603 -9.852,3.963 z M 25.447,88.05 c -2.298,4.013 -4.521,8.018 -6.784,12.238 -4.432,1.644 -8.954,3.378 -13.444,5.073 2.349,-4.207 4.66,-8.449 7.028,-12.622 4.394,-1.617 8.791,-3.132 13.2,-4.689 m 8.088,-13.888 c -2.235,3.696 -4.477,7.61 -6.734,11.516 -4.408,1.495 -8.804,3.018 -13.152,4.61 2.276,-4.082 4.649,-8.011 6.973,-11.872 4.322,-1.46 8.65,-2.906 12.913,-4.254 m 8.004,-13.081 c -2.265,3.537 -4.44,7.202 -6.664,10.845 -4.267,1.324 -8.613,2.808 -12.865,4.186 2.297,-3.741 4.631,-7.489 6.898,-11.17 4.21,-1.234 8.43,-2.599 12.631,-3.861 m 7.908,-12.328 c -2.195,3.318 -4.341,6.793 -6.584,10.225 -4.181,1.244 -8.395,2.56 -12.583,3.796 2.25,-3.622 4.547,-7.09 6.811,-10.526 4.176,-1.248 8.259,-2.42 12.356,-3.495 m 7.797,-11.625 c -2.113,3.208 -4.289,6.441 -6.488,9.64 -4.147,1.195 -8.23,2.284 -12.311,3.437 2.234,-3.327 4.473,-6.599 6.711,-9.922 4.049,-1.17 8.063,-2.154 12.088,-3.155 m 7.675,-10.979 c -2.132,2.986 -4.249,5.95 -6.387,9.102 -4.04,1.122 -8.063,2.02 -12.045,3.107 2.168,-3.208 4.395,-6.283 6.606,-9.361 3.904,-0.916 7.884,-1.906 11.826,-2.848 m 7.549,-10.373 c -2.099,2.807 -4.196,5.662 -6.28,8.601 -3.952,0.934 -7.869,1.816 -11.784,2.798 2.111,-3.021 4.335,-5.94 6.489,-8.838 3.845,-0.802 7.734,-1.735 11.575,-2.561 m 7.407,-9.799 c -2.091,2.64 -4.084,5.413 -6.165,8.128 -3.854,0.885 -7.712,1.685 -11.529,2.514 2.155,-2.775 4.283,-5.505 6.369,-8.352 3.819,-0.866 7.498,-1.582 11.325,-2.29 M 84.508,0.03 C 83.372,1.483 82.236,2.947 81.099,4.393 77.339,5.102 73.572,5.909 69.814,6.64 71.569,4.447 73.267,2.196 75.009,0.03 Z M 0.633,164.156 c 0.606,-0.297 1.213,-0.595 1.821,-0.898 -0.607,1.529 -1.214,3.056 -1.821,4.591 z m 0,-14.797 c 3.161,-1.467 6.342,-2.916 9.517,-4.303 -2.181,4.895 -4.251,9.992 -6.422,15.09 -1.032,0.5 -2.063,0.997 -3.095,1.494 z m 0,-8.611 c 1.036,-2.267 2.072,-4.517 3.126,-6.749 4.735,-2.001 9.407,-4.095 14.17,-6.034 -2.215,4.671 -4.337,9.34 -6.487,14.169 -3.605,1.622 -7.213,3.223 -10.809,4.86 z m 25.11,-28.842 c -2.153,4.396 -4.398,8.74 -6.514,13.317 -4.72,1.967 -9.448,3.852 -14.118,5.937 2.236,-4.683 4.466,-9.311 6.773,-13.764 4.634,-1.823 9.211,-3.645 13.859,-5.49 m 7.816,-15.098 c -2.165,4.076 -4.376,8.202 -6.514,12.52 -4.586,1.803 -9.243,3.612 -13.807,5.401 2.216,-4.416 4.516,-8.625 6.767,-12.933 4.529,-1.793 9.009,-3.365 13.554,-4.988 M 41.345,82.6 c -2.142,3.878 -4.293,7.773 -6.486,11.78 -4.481,1.725 -9.017,3.276 -13.503,4.91 2.229,-4.157 4.517,-8.226 6.737,-12.16 4.437,-1.49 8.826,-3.025 13.252,-4.53 m 7.736,-13.386 c -2.132,3.594 -4.266,7.357 -6.443,11.099 -4.403,1.502 -8.792,3.041 -13.203,4.457 2.263,-3.843 4.475,-7.648 6.686,-11.444 4.29,-1.346 8.673,-2.759 12.96,-4.112 M 56.743,56.6 c -2.121,3.441 -4.234,6.902 -6.38,10.46 -4.319,1.412 -8.61,2.66 -12.913,4.047 2.212,-3.672 4.425,-7.246 6.62,-10.784 4.172,-1.2 8.461,-2.499 12.673,-3.723 m 7.573,-11.899 c -2.084,3.25 -4.224,6.456 -6.306,9.868 -4.229,1.336 -8.44,2.419 -12.625,3.663 2.149,-3.437 4.387,-6.8 6.537,-10.165 4.189,-1.197 8.256,-2.224 12.394,-3.366 m 7.471,-11.23 c -2.063,3.054 -4.148,6.21 -6.221,9.317 -4.128,1.081 -8.275,2.204 -12.346,3.305 2.173,-3.238 4.331,-6.385 6.446,-9.586 4.043,-1.002 8.031,-2.006 12.121,-3.036 m 7.359,-10.612 c -2.017,2.92 -4.107,5.757 -6.127,8.803 -4.069,1.023 -8.035,1.931 -12.073,2.98 2.118,-3.086 4.194,-6.114 6.341,-9.049 3.95,-0.93 7.881,-1.824 11.859,-2.734 m 7.238,-10.033 c -2.03,2.691 -4.015,5.507 -6.026,8.323 -3.939,0.885 -7.926,1.879 -11.812,2.684 2.072,-2.913 4.184,-5.761 6.239,-8.557 3.875,-0.884 7.727,-1.662 11.599,-2.45 m 7.111,-9.493 c -1.965,2.539 -3.964,5.204 -5.919,7.876 -3.892,0.727 -7.677,1.53 -11.556,2.405 2.035,-2.705 4.079,-5.518 6.124,-8.09 C 85.898,4.689 89.75,3.999 93.495,3.333 M 96.053,0.03 C 95.589,0.62 95.125,1.211 94.666,1.803 90.895,2.477 87.128,3.135 83.359,3.95 84.385,2.638 85.408,1.328 86.427,0.03 Z M 0.633,196.121 c 1.844,-1.022 3.69,-2.035 5.537,-3.015 -1.855,5.67 -3.756,11.31 -5.537,17.213 z m 0,-16.43 c 4.162,-2.14 8.326,-4.284 12.516,-6.361 -1.976,5.371 -3.972,10.782 -5.831,16.392 -2.24,1.208 -4.465,2.413 -6.685,3.615 z m 0,-5.697 c 1.581,-4.11 3.133,-8.209 4.79,-12.171 4.921,-2.443 9.939,-4.683 14.896,-7.055 -1.974,5.072 -4.026,10.177 -5.987,15.384 -4.596,2.275 -9.151,4.526 -13.699,6.873 z m 26.992,-36.668 c -2.07,4.717 -4.07,9.54 -6.096,14.459 -4.938,2.232 -9.942,4.534 -14.843,6.948 2.044,-5.167 4.228,-10.045 6.37,-14.984 4.841,-2.184 9.723,-4.248 14.569,-6.423 m 7.391,-16.393 c -2.063,4.472 -4.117,9.006 -6.164,13.592 -4.85,2.105 -9.696,4.163 -14.516,6.324 2.133,-4.774 4.269,-9.481 6.435,-14.072 4.738,-1.939 9.48,-3.847 14.245,-5.844 m 7.43,-15.415 c -2.09,4.151 -4.199,8.349 -6.195,12.783 -4.718,1.847 -9.505,3.893 -14.191,5.749 2.07,-4.602 4.292,-8.886 6.461,-13.221 4.612,-1.805 9.296,-3.548 13.925,-5.311 m 7.442,-14.516 c -2.082,3.958 -4.122,7.934 -6.2,12.034 -4.611,1.621 -9.266,3.479 -13.875,5.228 2.149,-4.187 4.299,-8.414 6.461,-12.439 C 40.805,94.24 45.36,92.6 49.888,91.002 M 57.309,77.33 c -2.079,3.762 -4.122,7.486 -6.182,11.335 -4.529,1.598 -9.027,3.11 -13.563,4.75 2.13,-3.988 4.258,-7.966 6.437,-11.709 4.432,-1.501 8.784,-2.925 13.308,-4.376 m 7.373,-12.885 c -2.096,3.479 -4.079,7.095 -6.142,10.686 -4.394,1.323 -8.788,2.83 -13.254,4.303 2.132,-3.783 4.314,-7.36 6.39,-11.025 4.328,-1.221 8.675,-2.665 13.006,-3.964 m 7.312,-12.16 c -2.037,3.345 -4.072,6.665 -6.088,10.085 -4.301,1.229 -8.669,2.623 -12.957,3.899 2.081,-3.593 4.224,-7.004 6.332,-10.399 4.227,-1.264 8.501,-2.354 12.713,-3.585 M 79.225,40.81 c -2.057,3.095 -3.976,6.344 -6.02,9.517 -4.227,1.103 -8.447,2.39 -12.665,3.525 2.101,-3.333 4.189,-6.653 6.257,-9.808 4.151,-1.073 8.282,-2.134 12.428,-3.234 m 7.139,-10.845 c -1.978,2.943 -3.962,5.931 -5.942,8.993 -4.109,0.977 -8.198,2.025 -12.383,3.182 2.074,-3.074 4.071,-6.28 6.174,-9.263 3.988,-0.953 8.131,-1.99 12.151,-2.912 m 7.037,-10.254 c -1.983,2.765 -3.911,5.594 -5.856,8.504 -4.082,0.978 -8.053,1.857 -12.107,2.862 2.032,-2.996 4.079,-5.861 6.079,-8.751 3.97,-0.959 7.907,-1.695 11.884,-2.615 m 6.928,-9.703 c -1.915,2.632 -3.827,5.322 -5.764,8.047 -3.949,0.869 -7.885,1.75 -11.84,2.566 2.026,-2.769 4.04,-5.564 5.979,-8.272 3.851,-0.775 7.755,-1.652 11.625,-2.341 m 6.807,-9.187 c -1.91,2.51 -3.753,5.084 -5.665,7.62 -3.872,0.92 -7.706,1.405 -11.581,2.299 1.953,-2.633 3.895,-5.278 5.877,-7.834 3.753,-0.619 7.572,-1.448 11.369,-2.085 M 104.272,0.03 C 101.833,0.466 99.402,0.916 96.93,1.385 97.27,0.927 97.609,0.478 97.948,0.03 Z M 0.633,599.97 v -5.713 c 4.693,-7.8 9.464,-15.551 14.254,-23.304 2.642,9.617 5.605,19.297 8.822,29.017 z m 0,-63.99 c 1.417,-2.033 2.838,-4.061 4.263,-6.086 2.323,11.244 5.031,22.619 8.092,34.086 -4.161,6.503 -8.292,13.066 -12.355,19.674 z m 0,-263.137 c 0.532,-0.373 1.065,-0.747 1.598,-1.124 -0.551,2.966 -1.083,5.955 -1.598,8.971 z m 0,-21.151 c 2.177,-1.421 4.363,-2.835 6.563,-4.243 -1.498,6.563 -2.833,13.294 -4.18,20.116 -0.797,0.541 -1.591,1.083 -2.383,1.629 z m 0,-19.673 c 4.015,-2.46 8.054,-4.957 12.08,-7.357 -1.624,6.193 -3.196,12.43 -4.633,18.89 -2.5,1.536 -4.977,3.136 -7.447,4.756 z m 0,-12.817 c 0.666,-2.304 1.339,-4.591 2.016,-6.859 5.323,-3.023 10.651,-6.138 16.023,-9.076 -1.733,5.797 -3.4,11.699 -4.993,17.738 -4.369,2.534 -8.714,5.208 -13.046,7.84 z m 24.341,-36.031 c -1.822,5.474 -3.54,11.022 -5.275,16.659 -5.322,2.991 -10.696,5.893 -15.964,8.934 1.858,-5.849 3.689,-11.637 5.559,-17.332 5.208,-2.72 10.434,-5.615 15.68,-8.261 m 6.567,-18.882 c -1.827,5.13 -3.707,10.311 -5.487,15.652 -5.228,2.704 -10.433,5.307 -15.624,8.133 1.877,-5.534 3.832,-10.897 5.775,-16.269 5.127,-2.471 10.267,-5.086 15.336,-7.516 m 6.763,-17.752 c -1.871,4.805 -3.79,9.724 -5.647,14.714 -5.137,2.478 -10.223,4.862 -15.281,7.402 1.896,-5.226 3.883,-10.293 5.934,-15.276 4.982,-2.429 9.951,-4.589 14.994,-6.84 m 6.899,-16.695 c -1.9,4.554 -3.857,9.182 -5.758,13.842 -5.017,2.168 -9.977,4.438 -14.936,6.728 1.952,-4.878 4.002,-9.681 6.039,-14.349 4.924,-2.125 9.795,-4.189 14.655,-6.221 m 6.989,-15.707 c -1.969,4.247 -3.874,8.624 -5.828,13.022 -4.878,2.038 -9.769,4.104 -14.6,6.122 2.017,-4.603 4.034,-9.084 6.107,-13.491 4.763,-2.004 9.486,-3.834 14.321,-5.653 m 7.041,-14.796 c -1.955,4.041 -3.99,8.053 -5.869,12.265 -4.744,1.786 -9.52,3.718 -14.265,5.563 1.998,-4.377 4.073,-8.521 6.14,-12.696 4.641,-1.742 9.337,-3.495 13.994,-5.132 m 7.056,-13.941 c -2.007,3.692 -3.911,7.649 -5.881,11.559 -4.678,1.695 -9.279,3.308 -13.939,5.053 2.031,-4.017 4.118,-8.031 6.148,-11.957 4.526,-1.463 9.123,-3.177 13.672,-4.655 m 7.045,-13.147 c -1.959,3.587 -3.9,7.181 -5.87,10.901 -4.569,1.476 -9.067,3.052 -13.619,4.581 2.018,-3.878 4.057,-7.561 6.13,-11.263 4.435,-1.573 8.919,-2.883 13.359,-4.219 m 7.008,-12.404 c -1.959,3.37 -3.946,6.775 -5.839,10.287 -4.417,1.26 -8.859,2.768 -13.307,4.15 2.044,-3.62 4.048,-7.154 6.093,-10.617 4.361,-1.364 8.706,-2.568 13.053,-3.82 m 6.955,-11.712 c -1.928,3.16 -3.868,6.434 -5.792,9.715 -4.326,1.234 -8.68,2.584 -13.003,3.754 1.979,-3.415 4.012,-6.784 6.039,-10.02 4.258,-1.159 8.49,-2.315 12.756,-3.449 m 6.884,-11.064 c -1.856,3.1 -3.828,6.051 -5.731,9.175 -4.249,1.112 -8.442,2.24 -12.707,3.39 2.025,-3.192 4.012,-6.345 5.972,-9.461 4.134,-0.963 8.291,-2.03 12.466,-3.104 m 6.804,-10.467 c -1.909,2.876 -3.764,5.695 -5.663,8.68 -4.118,1.05 -8.274,2.029 -12.42,3.053 1.941,-3.088 3.913,-6.002 5.899,-8.945 4.057,-0.976 8.117,-1.853 12.184,-2.788 m 6.711,-9.905 c -1.827,2.725 -3.74,5.398 -5.586,8.216 -4.065,0.862 -8.094,1.791 -12.14,2.74 1.936,-2.837 3.885,-5.665 5.811,-8.455 3.991,-0.867 7.912,-1.677 11.915,-2.501 m 6.609,-9.381 c -1.811,2.564 -3.685,5.07 -5.501,7.782 -3.926,0.755 -7.856,1.548 -11.869,2.455 1.896,-2.714 3.778,-5.427 5.721,-8.003 3.87,-0.812 7.75,-1.462 11.649,-2.234 m 5.287,-7.288 c -1.405,1.886 -2.786,3.849 -4.194,5.772 -3.889,0.871 -7.763,1.448 -11.608,2.191 1.873,-2.535 3.76,-5.087 5.624,-7.579 0.768,-0.129 1.529,-0.257 2.286,-0.384 z M 36.206,599.97 c 4.49,-7.892 9.109,-15.671 13.774,-23.404 2.882,7.801 5.936,15.632 9.212,23.404 z m 0.801,-62.857 c 3.156,10.857 6.612,21.856 10.555,32.783 -6.054,9.911 -11.988,19.82 -17.795,29.92 -4.042,-11.759 -7.789,-23.42 -10.938,-35.084 5.91,-9.326 12.025,-18.507 18.178,-27.619 m -9.628,-37.947 c 2.234,10.454 4.959,20.892 7.805,31.515 -6.167,8.958 -12.229,18.056 -18.237,27.175 -3.102,-11.256 -5.761,-22.507 -8.03,-33.615 6.012,-8.515 12.169,-16.844 18.462,-25.075 m -6.772,-36.289 c 1.423,9.961 3.316,19.994 5.458,30.119 -6.247,8.178 -12.44,16.36 -18.494,24.679 C 5.303,506.909 3.542,496.193 2.015,485.65 8.103,477.979 14.339,470.459 20.607,462.877 M 0.633,445.674 c 5.174,-5.822 10.369,-11.61 15.626,-17.33 0.832,9.433 2.065,18.989 3.467,28.657 C 13.404,464.322 7.299,471.89 1.124,479.408 0.957,478.163 0.793,476.92 0.633,475.68 Z m 0,-36.635 c 4.409,-4.524 8.844,-9.017 13.326,-13.449 0.402,8.913 0.955,17.988 1.784,27.169 -5.077,5.421 -10.126,10.928 -15.11,16.467 z m 0,-32.578 c 4.233,-3.95 8.482,-7.909 12.749,-11.852 -0.005,8.437 0.08,16.999 0.369,25.697 -4.414,4.325 -8.792,8.652 -13.118,13.02 z m 0,-29.484 c 4.502,-3.898 9.037,-7.783 13.614,-11.609 -0.418,7.946 -0.739,16.028 -0.813,24.252 -4.274,3.914 -8.552,7.767 -12.801,11.676 z m 0,-26.818 c 5.197,-4.194 10.419,-8.38 15.68,-12.357 -0.688,7.496 -1.313,15.105 -1.798,22.856 -4.648,3.871 -9.296,7.745 -13.882,11.663 z m 0,-16.65 c 0.398,-2.958 0.805,-5.9 1.197,-8.837 5.832,-4.331 11.661,-8.65 17.544,-12.83 -0.979,7.061 -1.858,14.206 -2.614,21.519 -5.375,4.112 -10.802,8.348 -16.127,12.566 z m 22.62,-46.098 c -1.173,6.646 -2.267,13.379 -3.286,20.254 -5.891,4.115 -11.692,8.379 -17.49,12.63 1.049,-7.232 2.286,-14.291 3.558,-21.211 5.711,-3.999 11.442,-7.778 17.218,-11.673 m 4.548,-22.977 c -1.381,6.235 -2.684,12.557 -3.833,19.049 -5.795,3.742 -11.496,7.59 -17.162,11.49 1.208,-6.844 2.674,-13.385 4.119,-19.921 5.574,-3.629 11.225,-7.069 16.876,-10.618 m 5.089,-21.615 c -1.492,5.859 -2.933,11.827 -4.276,17.918 -5.654,3.463 -11.251,6.85 -16.818,10.456 1.47,-6.363 2.988,-12.596 4.57,-18.711 5.468,-3.239 10.977,-6.564 16.524,-9.663 m 5.525,-20.331 c -1.647,5.445 -3.149,11.151 -4.631,16.855 -5.488,3.124 -11.025,6.309 -16.466,9.513 1.522,-6.021 3.253,-11.786 4.93,-17.576 5.375,-2.925 10.76,-5.926 16.167,-8.792 m 5.863,-19.122 c -1.683,5.205 -3.377,10.426 -4.909,15.856 -5.39,2.813 -10.791,5.694 -16.106,8.654 1.673,-5.643 3.406,-11.108 5.209,-16.511 5.233,-2.819 10.527,-5.372 15.806,-7.999 m 6.132,-17.998 c -1.755,4.892 -3.482,9.792 -5.125,14.922 -5.273,2.566 -10.543,5.326 -15.746,7.871 1.76,-5.267 3.608,-10.438 5.423,-15.515 5.147,-2.431 10.24,-4.827 15.448,-7.278 m 6.328,-16.94 c -1.803,4.582 -3.556,9.284 -5.286,14.046 -5.192,2.36 -10.286,4.765 -15.388,7.16 1.857,-4.916 3.708,-9.794 5.582,-14.592 5.07,-2.236 10.042,-4.278 15.092,-6.614 m 6.472,-15.952 c -1.836,4.294 -3.604,8.773 -5.402,13.226 -5.009,2.013 -10.03,4.311 -15.033,6.51 1.891,-4.667 3.792,-9.241 5.694,-13.727 4.895,-1.959 9.832,-4.035 14.741,-6.009 m 6.571,-15.036 c -1.879,4.077 -3.644,8.294 -5.48,12.466 -4.938,2.017 -9.785,3.878 -14.684,5.915 1.903,-4.371 3.831,-8.679 5.767,-12.922 4.767,-1.862 9.556,-3.655 14.397,-5.459 m 6.63,-14.172 c -1.823,3.899 -3.688,7.781 -5.528,11.752 -4.79,1.79 -9.612,3.543 -14.342,5.374 1.914,-4.091 3.785,-8.286 5.809,-12.175 4.675,-1.648 9.403,-3.448 14.061,-4.951 m 6.653,-13.372 c -1.836,3.661 -3.676,7.359 -5.547,11.088 -4.663,1.614 -9.302,3.115 -14.004,4.872 1.906,-3.949 3.874,-7.685 5.82,-11.472 4.576,-1.534 9.119,-3.05 13.731,-4.488 m 6.654,-12.625 c -1.859,3.432 -3.708,6.971 -5.544,10.47 -4.598,1.542 -9.124,2.882 -13.677,4.414 1.875,-3.723 3.84,-7.287 5.81,-10.821 4.432,-1.368 8.939,-2.671 13.411,-4.063 m 6.628,-11.919 c -1.846,3.215 -3.706,6.542 -5.522,9.887 -4.454,1.375 -8.934,2.685 -13.358,3.992 1.919,-3.457 3.812,-6.909 5.781,-10.212 4.346,-1.262 8.735,-2.474 13.099,-3.667 m 6.585,-11.27 c -1.83,3.072 -3.641,6.216 -5.483,9.345 -4.401,1.317 -8.674,2.376 -13.05,3.608 1.919,-3.225 3.81,-6.536 5.738,-9.647 4.218,-1.056 8.507,-2.233 12.795,-3.306 m 6.527,-10.658 c -1.847,2.863 -3.652,5.839 -5.436,8.842 -4.31,1.075 -8.528,2.259 -12.746,3.245 1.94,-3.078 3.817,-6.126 5.681,-9.118 4.163,-1.044 8.301,-1.965 12.501,-2.969 m 6.456,-10.091 c -1.767,2.733 -3.622,5.474 -5.375,8.37 -4.136,0.991 -8.272,1.941 -12.454,2.919 1.896,-2.882 3.733,-5.827 5.612,-8.626 4.059,-0.87 8.116,-1.659 12.217,-2.663 m 6.375,-9.56 c -1.77,2.608 -3.536,5.228 -5.308,7.929 -4.07,0.844 -8.173,1.882 -12.169,2.615 1.873,-2.76 3.699,-5.481 5.533,-8.16 4.005,-0.805 7.95,-1.607 11.944,-2.384 m 6.284,-9.058 c -1.77,2.432 -3.455,4.991 -5.232,7.515 -3.971,0.777 -7.942,1.485 -11.896,2.339 1.802,-2.626 3.631,-5.221 5.452,-7.735 3.837,-0.646 7.797,-1.45 11.676,-2.119 m 3.344,-4.685 c -0.772,1.072 -1.543,2.149 -2.308,3.223 -3.903,0.667 -7.776,1.391 -11.63,2.077 1.3,-1.749 2.584,-3.549 3.864,-5.3 z M 76.174,599.97 c 4.045,-7.355 8.158,-14.653 12.372,-21.848 3.576,7.33 7.35,14.619 11.337,21.848 z M 59.75,504.842 c 3.047,10.049 6.472,20.091 10.24,30.078 -6.4,9.641 -12.692,19.211 -18.77,29.075 -3.851,-10.864 -7.361,-21.622 -10.493,-32.324 6.192,-9.057 12.519,-18.118 19.023,-26.829 m -9.431,-34.978 c 2.302,9.555 4.769,19.356 7.654,29.057 -6.473,8.681 -12.882,17.454 -19.058,26.403 -2.921,-10.452 -5.558,-20.776 -7.771,-31.103 6.291,-8.207 12.68,-16.338 19.175,-24.357 m -6.737,-33.592 c 1.61,9.185 3.331,18.548 5.439,27.893 -6.492,7.881 -12.941,15.868 -19.188,23.971 C 27.721,478.107 26,468.174 24.386,458.39 c 6.338,-7.497 12.743,-14.82 19.196,-22.118 m -4.44,-32.091 c 0.879,8.803 2.154,17.648 3.551,26.639 -6.498,7.12 -12.844,14.485 -19.189,21.764 -1.331,-9.579 -2.576,-19 -3.475,-28.314 6.292,-6.794 12.671,-13.48 19.113,-20.089 m -2.491,-30.535 c 0.425,8.344 1.136,16.77 1.95,25.34 -6.477,6.441 -12.77,13.202 -19.091,19.761 -0.772,-9.083 -1.401,-18.04 -1.806,-26.859 6.276,-6.143 12.562,-12.25 18.947,-18.242 m -0.846,-28.974 c 0.077,7.884 0.13,15.93 0.599,24.038 -6.327,5.956 -12.675,11.89 -18.913,17.952 -0.335,-8.604 -0.448,-17.084 -0.404,-25.415 6.175,-5.643 12.438,-11.068 18.718,-16.575 m 0.536,-27.424 c -0.274,7.469 -0.508,15.055 -0.536,22.747 -6.257,5.291 -12.459,10.841 -18.674,16.313 0.127,-8.125 0.36,-16.144 0.771,-23.997 6.143,-4.988 12.21,-10.19 18.439,-15.063 m 1.695,-25.916 c -0.612,7.047 -1.161,14.213 -1.486,21.491 -6.188,4.868 -12.283,9.821 -18.391,14.824 0.459,-7.681 1.067,-15.198 1.75,-22.624 6.001,-4.652 12.076,-9.251 18.127,-13.691 m 2.656,-24.465 c -0.785,6.663 -1.517,13.42 -2.275,20.281 -6.055,4.482 -12.065,8.96 -18.071,13.478 0.79,-7.24 1.503,-14.384 2.56,-21.312 5.872,-4.117 11.839,-8.371 17.786,-12.447 m 3.454,-23.074 c -1.076,6.249 -2.076,12.642 -2.929,19.132 -5.904,4.014 -11.863,8.101 -17.727,12.251 0.98,-6.799 2.066,-13.505 3.227,-20.064 5.781,-3.759 11.618,-7.601 17.429,-11.319 m 4.107,-21.748 c -1.2,5.941 -2.421,11.902 -3.464,18.032 -5.832,3.679 -11.619,7.416 -17.367,11.142 1.188,-6.394 2.394,-12.72 3.772,-18.879 5.643,-3.521 11.349,-6.978 17.059,-10.295 m 4.642,-20.492 c -1.367,5.547 -2.623,11.249 -3.901,16.993 -5.688,3.274 -11.387,6.683 -16.997,10.132 1.349,-6.017 2.729,-11.964 4.215,-17.764 5.493,-3.189 11.117,-6.301 16.683,-9.361 m 5.072,-19.31 c -1.487,5.219 -2.854,10.597 -4.254,16.012 -5.551,3.096 -11.16,6.048 -16.621,9.216 1.491,-5.649 3,-11.227 4.569,-16.711 5.392,-2.894 10.847,-5.753 16.306,-8.517 m 5.414,-18.193 c -1.556,4.919 -3.032,9.995 -4.532,15.085 -5.408,2.788 -10.84,5.5 -16.244,8.384 1.551,-5.359 3.155,-10.579 4.849,-15.73 5.3,-2.679 10.609,-5.19 15.927,-7.739 m 5.683,-17.149 c -1.668,4.612 -3.159,9.436 -4.752,14.22 -5.293,2.522 -10.562,5.012 -15.867,7.618 1.651,-5.024 3.325,-9.967 5.064,-14.801 5.166,-2.229 10.354,-4.721 15.555,-7.037 m 5.888,-16.167 c -1.609,4.456 -3.3,8.876 -4.918,13.408 -5.195,2.252 -10.338,4.592 -15.494,6.925 1.684,-4.73 3.491,-9.342 5.225,-13.938 5.079,-2.275 10.096,-4.319 15.187,-6.395 m 6.04,-15.247 c -1.7,4.12 -3.358,8.368 -5.041,12.643 -5.044,2.052 -10.087,4.233 -15.126,6.291 1.75,-4.471 3.479,-8.89 5.342,-13.128 4.891,-1.97 9.884,-3.959 14.825,-5.806 m 6.146,-14.382 c -1.711,3.93 -3.475,7.838 -5.128,11.929 -4.944,1.82 -9.849,3.762 -14.764,5.71 1.772,-4.254 3.607,-8.312 5.422,-12.377 4.773,-1.727 9.628,-3.579 14.47,-5.262 m 6.216,-13.582 c -1.758,3.699 -3.492,7.425 -5.184,11.265 -4.819,1.667 -9.632,3.477 -14.412,5.178 1.792,-3.996 3.676,-7.805 5.468,-11.669 4.685,-1.504 9.42,-3.203 14.128,-4.774 m 6.251,-12.825 c -1.751,3.477 -3.471,7.051 -5.21,10.636 -4.71,1.623 -9.379,3.089 -14.07,4.695 1.864,-3.664 3.626,-7.422 5.491,-11.014 4.579,-1.537 9.204,-2.944 13.789,-4.317 m 6.261,-12.122 c -1.774,3.265 -3.498,6.65 -5.218,10.056 -4.594,1.412 -9.112,2.77 -13.733,4.244 1.839,-3.496 3.618,-7.032 5.488,-10.396 4.473,-1.396 8.981,-2.681 13.463,-3.904 m 6.248,-11.462 c -1.686,3.199 -3.456,6.326 -5.206,9.51 -4.454,1.221 -8.961,2.514 -13.408,3.833 1.766,-3.426 3.607,-6.661 5.47,-9.823 4.395,-1.256 8.739,-2.296 13.144,-3.52 M 118.33,40.27 c -1.704,2.996 -3.449,5.984 -5.177,8.997 -4.369,1.097 -8.731,2.335 -13.093,3.458 1.801,-3.175 3.622,-6.185 5.435,-9.29 4.304,-1.188 8.55,-2.081 12.835,-3.165 M 124.499,30 c -1.708,2.843 -3.418,5.594 -5.137,8.52 -4.276,1.03 -8.529,2.006 -12.785,3.109 1.782,-3.027 3.597,-5.872 5.384,-8.786 4.17,-0.935 8.319,-1.929 12.538,-2.843 m 6.11,-9.731 c -1.686,2.627 -3.378,5.362 -5.087,8.074 -4.148,0.955 -8.309,1.796 -12.49,2.789 1.781,-2.797 3.533,-5.572 5.329,-8.321 4.082,-0.897 8.146,-1.745 12.248,-2.542 m 6.04,-9.225 c -1.683,2.448 -3.357,5.035 -5.026,7.65 -4.12,0.848 -8.197,1.681 -12.206,2.5 1.727,-2.702 3.51,-5.313 5.263,-7.885 3.96,-0.83 7.995,-1.519 11.969,-2.265 m 5.959,-8.751 c -1.64,2.389 -3.31,4.79 -4.961,7.261 -3.981,0.737 -7.972,1.462 -11.924,2.222 1.71,-2.535 3.456,-5.041 5.186,-7.473 3.942,-0.669 7.834,-1.377 11.699,-2.01 m 1.591,-2.263 c -0.201,0.282 -0.403,0.565 -0.605,0.847 -3.865,0.517 -7.789,1.316 -11.656,1.971 0.695,-0.929 1.376,-1.871 2.053,-2.818 z m -27.022,599.94 c 4.631,-8.743 9.334,-17.448 14.223,-26.007 5.767,8.754 11.93,17.5 18.431,26.007 z m -9.773,0 c -5.396,-9.228 -10.436,-18.75 -15.102,-28.256 6.313,-10.564 12.765,-21.118 19.347,-31.547 4.982,9.487 10.405,18.74 16.163,28.172 -6.048,10.39 -11.869,20.988 -17.562,31.631 z M 95.847,506.546 c 3.985,9.357 8.253,18.734 12.909,27.989 -6.639,10.242 -13.137,20.537 -19.418,31.048 -4.778,-10.033 -9.17,-20.155 -13.173,-30.381 6.427,-9.652 12.969,-19.215 19.682,-28.656 M 83.482,473.534 c 3.028,9.172 6.381,18.396 10.078,27.458 -6.742,9.264 -13.323,18.593 -19.72,28.2 -3.707,-9.949 -7.072,-19.857 -10.203,-29.637 6.511,-8.793 13.145,-17.407 19.845,-26.021 m -9.386,-32.095 c 2.291,8.79 4.844,17.742 7.628,26.675 -6.727,8.448 -13.374,16.965 -19.859,25.607 -2.899,-9.544 -5.45,-19.08 -7.641,-28.658 6.521,-7.972 13.155,-15.859 19.872,-23.624 m -6.829,-30.974 c 1.544,8.556 3.409,17.145 5.523,25.728 -6.769,7.64 -13.344,15.366 -19.863,23.247 -2.045,-9.281 -3.822,-18.475 -5.446,-27.524 6.523,-7.247 13.094,-14.385 19.786,-21.451 M 62.63,380.749 c 1.02,8.151 2.208,16.4 3.723,24.675 -6.65,6.967 -13.211,14.055 -19.764,21.107 -1.468,-8.806 -2.557,-17.659 -3.574,-26.302 6.492,-6.6 13.029,-12.998 19.615,-19.48 m -2.77,-28.383 c 0.53,7.773 1.256,15.64 2.187,23.558 -6.584,6.327 -13.094,12.77 -19.579,19.168 C 41.639,386.63 40.94,378.285 40.482,370.055 46.896,364.05 53.32,358.16 59.86,352.366 m -1.19,-27.025 c 0.242,7.334 0.328,14.897 0.889,22.425 -6.502,5.648 -12.966,11.538 -19.33,17.407 -0.409,-8.033 -0.598,-15.956 -0.644,-23.762 6.316,-5.343 12.683,-10.787 19.085,-16.07 m 0.147,-25.655 c -0.174,7 -0.297,14.106 -0.209,21.285 -6.391,5.198 -12.743,10.513 -19.032,15.811 0.045,-7.618 0.191,-15.108 0.485,-22.5 6.232,-4.896 12.445,-9.815 18.756,-14.596 m 1.27,-24.322 c -0.496,6.626 -0.886,13.347 -1.13,20.174 -6.21,4.815 -12.503,9.556 -18.699,14.369 0.319,-7.217 0.783,-14.298 1.43,-21.273 6.094,-4.438 12.239,-8.89 18.399,-13.27 m 2.209,-23.008 c -0.773,6.258 -1.337,12.628 -1.901,19.086 -6.179,4.289 -12.307,8.621 -18.337,13.059 0.552,-6.815 1.376,-13.508 2.214,-20.089 6.011,-4.054 11.965,-8.044 18.024,-12.056 m 2.989,-21.752 c -0.928,5.919 -1.803,11.923 -2.541,18.037 -6.002,3.969 -12.01,7.858 -17.96,11.871 0.786,-6.448 1.854,-12.723 2.868,-18.947 5.86,-3.632 11.745,-7.377 17.633,-10.961 m 3.635,-20.55 c -1.107,5.594 -2.156,11.252 -3.07,17.04 -5.898,3.476 -11.767,7.149 -17.568,10.791 1.058,-6.055 2.164,-12.051 3.402,-17.866 5.728,-3.278 11.437,-6.758 17.236,-9.965 m 4.166,-19.403 c -1.263,5.261 -2.388,10.645 -3.504,16.092 -5.724,3.167 -11.459,6.496 -17.172,9.81 1.235,-5.707 2.492,-11.358 3.837,-16.84 5.586,-3.025 11.218,-6.057 16.839,-9.062 m 4.599,-18.319 c -1.294,5 -2.603,10.063 -3.858,15.19 -5.608,2.989 -11.199,5.83 -16.775,8.921 1.379,-5.351 2.742,-10.676 4.188,-15.875 5.442,-2.802 10.958,-5.528 16.445,-8.236 m 4.943,-17.288 c -1.36,4.709 -2.803,9.501 -4.142,14.342 -5.502,2.69 -10.909,5.432 -16.377,8.1 1.404,-5.132 2.969,-10.055 4.47,-14.96 5.32,-2.445 10.692,-5.015 16.049,-7.482 m 5.218,-16.322 c -1.477,4.448 -2.882,8.983 -4.366,13.535 -5.323,2.358 -10.675,4.875 -15.983,7.365 1.556,-4.774 3.133,-9.483 4.689,-14.105 5.181,-2.251 10.425,-4.728 15.66,-6.795 m 5.432,-15.409 c -1.523,4.196 -3.097,8.431 -4.539,12.778 -5.215,2.096 -10.382,4.382 -15.597,6.688 1.594,-4.5 3.171,-8.974 4.857,-13.299 5.077,-2.121 10.157,-4.102 15.279,-6.167 m 5.593,-14.558 c -1.626,3.897 -3.116,8.008 -4.67,12.071 -5.075,2.038 -10.147,4.077 -15.218,6.069 1.597,-4.293 3.329,-8.408 4.982,-12.544 4.952,-1.877 9.895,-3.749 14.906,-5.596 m 5.712,-13.754 c -1.645,3.691 -3.177,7.56 -4.767,11.409 -4.925,1.8 -9.92,3.694 -14.844,5.5 1.636,-4.028 3.315,-8.01 5.069,-11.841 4.852,-1.652 9.673,-3.392 14.542,-5.068 M 110.375,82 c -1.611,3.562 -3.269,7.094 -4.831,10.782 -4.846,1.65 -9.68,3.347 -14.484,4.989 1.72,-3.788 3.398,-7.518 5.125,-11.181 4.727,-1.507 9.461,-3.074 14.19,-4.59 m 5.838,-12.294 c -1.641,3.354 -3.271,6.716 -4.869,10.197 -4.766,1.451 -9.419,2.91 -14.132,4.515 1.672,-3.624 3.423,-7.125 5.157,-10.566 4.59,-1.358 9.235,-2.842 13.844,-4.146 m 5.862,-11.635 c -1.632,3.189 -3.295,6.367 -4.885,9.652 -4.608,1.295 -9.168,2.672 -13.79,4.075 1.776,-3.33 3.431,-6.734 5.163,-9.985 4.527,-1.224 9.015,-2.575 13.512,-3.742 m 5.862,-11.015 c -1.665,2.993 -3.29,6.037 -4.885,9.138 -4.52,1.161 -8.963,2.416 -13.456,3.676 1.735,-3.196 3.444,-6.307 5.151,-9.443 4.385,-1.147 8.789,-2.282 13.19,-3.371 m 5.84,-10.433 c -1.627,2.898 -3.321,5.664 -4.866,8.657 -4.363,1.141 -8.787,2.116 -13.135,3.307 1.682,-3.029 3.435,-5.959 5.125,-8.936 4.304,-1.022 8.561,-2.053 12.876,-3.028 m 5.806,-9.888 c -1.585,2.72 -3.187,5.456 -4.834,8.203 -4.31,1.101 -8.587,1.958 -12.825,2.972 1.68,-2.851 3.363,-5.715 5.088,-8.467 4.205,-0.963 8.393,-1.792 12.571,-2.708 m 5.759,-9.379 c -1.612,2.528 -3.213,5.106 -4.795,7.782 -4.207,0.899 -8.359,1.776 -12.525,2.661 1.73,-2.667 3.348,-5.398 5.039,-8.024 4.126,-0.912 8.166,-1.666 12.281,-2.419 m 5.701,-8.903 c -1.585,2.405 -3.195,4.861 -4.746,7.388 -4.096,0.739 -8.167,1.596 -12.233,2.369 1.644,-2.578 3.328,-5.156 4.981,-7.606 3.977,-0.616 7.998,-1.514 11.998,-2.151 m 5.613,-8.423 c -1.54,2.289 -3.143,4.65 -4.67,6.987 -3.985,0.741 -7.966,1.373 -11.951,2.104 1.643,-2.44 3.273,-4.888 4.916,-7.219 3.858,-0.618 7.705,-1.223 11.557,-1.872 z m -8.023,0 c -0.901,0.154 -1.802,0.309 -2.705,0.465 0.109,-0.155 0.218,-0.309 0.327,-0.465 z m 54.307,599.94 c 1.483,-3.075 2.98,-6.14 4.491,-9.193 3.654,3.127 7.393,6.195 11.213,9.193 z m -43.417,0 c -0.037,-0.045 -0.074,-0.09 -0.111,-0.135 6.375,-12.388 12.892,-24.715 19.643,-36.908 7.312,8.338 15.063,15.847 23.292,23.354 -2.268,4.542 -4.509,9.106 -6.723,13.689 z m -4.063,-66.426 c 6.038,8.58 12.478,16.703 19.347,24.566 -6.78,12.01 -13.37,24.122 -19.744,36.341 -7.017,-8.921 -13.595,-18.073 -19.765,-27.319 6.534,-11.342 13.248,-22.528 20.162,-33.588 m -19.345,-30.118 c 4.892,8.622 10.173,16.873 15.839,25.131 -6.893,10.888 -13.719,21.883 -20.226,33.061 -5.77,-9.102 -11.129,-18.3 -16.094,-27.661 6.696,-10.234 13.454,-20.561 20.481,-30.531 m -15.602,-30.258 c 3.919,8.491 8.135,16.992 12.756,25.21 -7.003,9.852 -13.786,19.97 -20.518,30.051 -4.646,-9.127 -8.952,-18.296 -12.873,-27.521 6.703,-9.392 13.622,-18.643 20.635,-27.74 M 108.18,443.223 c 3.06,8.296 6.413,16.747 10.062,24.922 -6.973,9.021 -13.846,18.132 -20.644,27.295 -3.685,-8.907 -7.026,-18.004 -10.066,-27.027 6.772,-8.441 13.671,-16.86 20.648,-25.19 m -9.492,-29.306 c 2.357,8.047 4.89,16.191 7.723,24.37 -7.017,8.144 -13.902,16.376 -20.637,24.788 -2.812,-8.886 -5.45,-17.425 -7.637,-26.288 6.759,-7.703 13.6,-15.364 20.551,-22.87 m -7.043,-28.436 c 1.683,7.852 3.502,15.906 5.708,23.632 -6.912,7.422 -13.785,14.882 -20.524,22.506 -2.056,-8.55 -3.947,-16.959 -5.547,-25.374 6.682,-7.009 13.515,-13.938 20.363,-20.764 m -4.937,-27.418 c 1.15,7.489 2.488,15.092 3.977,22.773 -6.831,6.752 -13.635,13.55 -20.324,20.434 -1.502,-8.148 -2.748,-16.317 -3.758,-24.353 6.583,-6.495 13.336,-12.651 20.105,-18.854 M 83.572,331.76 c 0.624,7.228 1.464,14.508 2.497,21.84 -6.778,6.089 -13.444,12.273 -20.058,18.555 -0.891,-7.866 -1.629,-15.606 -2.235,-23.27 6.53,-5.821 13.138,-11.551 19.796,-17.125 m -1.604,-25.13 c 0.282,6.848 0.649,13.838 1.236,20.863 -6.64,5.512 -13.208,11.137 -19.739,16.847 -0.531,-7.462 -0.813,-14.853 -0.941,-22.159 6.397,-5.279 12.908,-10.457 19.444,-15.551 m -0.303,-23.945 c -0.032,6.498 -0.071,13.205 0.168,19.871 -6.517,5.042 -12.954,10.196 -19.383,15.305 -0.052,-7.128 0.022,-14.148 0.15,-21.049 6.26,-4.838 12.647,-9.51 19.065,-14.127 m 0.795,-22.766 c -0.401,6.214 -0.626,12.512 -0.733,18.887 -6.374,4.548 -12.748,9.093 -19.001,13.905 0.243,-6.756 0.556,-13.397 1.067,-19.956 6.206,-4.281 12.417,-8.637 18.667,-12.836 m 1.717,-21.603 c -0.557,5.874 -1.141,11.857 -1.491,17.92 -6.239,4.101 -12.43,8.4 -18.598,12.638 0.537,-6.394 1.149,-12.683 1.834,-18.89 6.074,-3.911 12.155,-7.879 18.255,-11.668 m 2.49,-20.471 c -0.779,5.588 -1.455,11.232 -2.125,16.981 -6.053,3.807 -12.161,7.621 -18.183,11.48 0.672,-6.029 1.526,-11.999 2.473,-17.861 5.915,-3.504 11.84,-7.203 17.835,-10.6 m 3.132,-19.384 c -0.977,5.267 -1.826,10.621 -2.651,16.079 -5.958,3.293 -11.894,6.911 -17.765,10.433 0.974,-5.704 1.966,-11.347 3.003,-16.878 5.779,-3.24 11.614,-6.518 17.413,-9.634 m 3.664,-18.345 c -1.067,5.017 -2.095,10.062 -3.087,15.217 -5.79,3.122 -11.58,6.22 -17.343,9.48 1.109,-5.398 2.158,-10.759 3.439,-15.943 5.666,-3.001 11.267,-5.947 16.991,-8.754 m 4.1,-17.35 c -1.289,4.694 -2.344,9.504 -3.445,14.391 -5.683,2.698 -11.329,5.645 -16.923,8.614 1.266,-5.077 2.398,-10.167 3.791,-15.055 5.527,-2.718 11.024,-5.332 16.577,-7.95 m 4.452,-16.412 c -1.228,4.49 -2.499,9.02 -3.733,13.611 -5.502,2.548 -10.981,5.139 -16.508,7.825 1.335,-4.811 2.726,-9.536 4.075,-14.216 5.371,-2.491 10.755,-4.867 16.166,-7.22 m 4.738,-15.52 c -1.375,4.186 -2.745,8.496 -3.966,12.872 -5.44,2.357 -10.758,4.681 -16.098,7.105 1.451,-4.511 2.917,-8.983 4.299,-13.425 5.228,-2.153 10.498,-4.336 15.765,-6.552 m 4.961,-14.678 c -1.464,3.965 -2.805,8.032 -4.148,12.171 -5.283,2.153 -10.483,4.244 -15.697,6.449 1.423,-4.321 2.942,-8.523 4.475,-12.678 5.105,-1.928 10.221,-3.945 15.37,-5.942 m 5.135,-13.887 c -1.434,3.795 -2.903,7.609 -4.289,11.517 -5.064,1.964 -10.222,3.891 -15.307,5.849 1.476,-4.103 3.113,-8.011 4.607,-11.977 5.002,-1.871 9.988,-3.519 14.989,-5.389 m 5.265,-13.14 c -1.481,3.57 -2.909,7.232 -4.396,10.899 -5.015,1.748 -9.969,3.5 -14.924,5.299 1.603,-3.822 3.121,-7.636 4.706,-11.322 4.876,-1.59 9.719,-3.273 14.614,-4.876 m 5.355,-12.434 c -1.514,3.412 -2.975,6.819 -4.468,10.315 -4.851,1.586 -9.684,3.212 -14.555,4.796 1.568,-3.635 3.178,-7.19 4.772,-10.704 4.755,-1.503 9.479,-2.951 14.251,-4.407 m 5.421,-11.782 c -1.519,3.193 -2.994,6.484 -4.521,9.774 -4.755,1.558 -9.443,2.893 -14.192,4.332 1.567,-3.444 3.178,-6.803 4.811,-10.128 4.61,-1.313 9.264,-2.609 13.902,-3.978 m 5.453,-11.156 c -1.545,3.015 -3.03,6.123 -4.546,9.257 -4.61,1.228 -9.272,2.619 -13.844,3.908 1.564,-3.259 3.179,-6.447 4.831,-9.586 4.51,-1.119 9.06,-2.578 13.559,-3.579 m 95.713,-29.021 c -0.966,2.287 -1.65,4.585 -2.616,6.932 -4.586,0.896 -9.15,1.616 -13.768,2.622 1.047,-2.426 1.977,-4.831 2.915,-7.187 4.489,-0.886 8.99,-1.625 13.469,-2.367 m -84.786,8.412 c -1.49,2.748 -3.003,5.523 -4.549,8.322 -4.361,0.989 -8.771,2.018 -13.179,3.161 1.612,-2.888 3.169,-5.79 4.814,-8.598 4.285,-0.916 8.6,-1.9 12.914,-2.885 m 5.439,-9.518 c -1.516,2.624 -3.038,5.175 -4.529,7.896 -4.307,0.918 -8.595,1.937 -12.864,2.833 1.598,-2.778 3.204,-5.46 4.787,-8.156 4.196,-0.846 8.371,-1.703 12.606,-2.573 m 5.405,-9.041 c -1.473,2.48 -3.024,4.947 -4.501,7.5 -4.195,0.751 -8.384,1.682 -12.558,2.529 1.568,-2.628 3.133,-5.214 4.747,-7.733 4.118,-0.747 8.185,-1.585 12.312,-2.296 m 5.357,-8.585 c -1.511,2.337 -2.994,4.695 -4.461,7.124 -4.041,0.579 -8.188,1.515 -12.265,2.251 1.59,-2.441 3.12,-4.942 4.7,-7.343 4.059,-0.804 7.998,-1.31 12.026,-2.032 m 3.868,-5.974 c -0.994,1.511 -2.002,3.036 -2.981,4.586 -4.007,0.64 -7.972,1.359 -11.979,1.989 1.469,-2.207 2.937,-4.379 4.382,-6.575 z m 411.736,599.94 c 2.418,-17.082 5.358,-34.011 8.86,-50.737 3.373,-1.499 6.751,-3.031 10.13,-4.596 v 55.333 z m -66.598,0 c 1.772,-8.009 3.66,-15.974 5.665,-23.896 18.957,-5.913 38.227,-13.209 57.796,-21.59 -3.25,15.005 -6.077,30.182 -8.463,45.486 z m -60.638,0 c 0.793,-2.801 1.598,-5.596 2.413,-8.388 17.22,-2.755 34.811,-6.905 52.811,-12.144 -1.763,6.81 -3.45,13.655 -5.055,20.532 z m -56.153,0 c 0.382,-1.136 0.769,-2.271 1.156,-3.405 15.319,-0.086 31.176,-1.113 47.384,-3.458 -0.692,2.284 -1.375,4.571 -2.049,6.863 z m -52.544,0 c 0.942,-2.471 1.895,-4.935 2.857,-7.394 13.511,2.273 27.494,3.561 41.915,3.901 -0.406,1.163 -0.811,2.328 -1.213,3.493 z m -49.649,0 c 2.614,-6.239 5.292,-12.442 8.031,-18.608 11.759,4.095 23.981,7.351 36.631,9.8 -1.176,2.928 -2.336,5.864 -3.482,8.808 z m -47.27,0 c 5.382,-11.946 11.009,-23.733 16.847,-35.375 10.084,5.428 20.659,10.206 31.641,14.316 -3.173,6.954 -6.247,13.982 -9.24,21.059 z M 522.467,224.875 c 10.956,-1.197 22.386,-2.974 34.291,-5.122 -12.041,8.168 -23.838,16.731 -35.445,25.526 -11.37,1.743 -22.298,3.036 -32.758,3.733 11.124,-8.296 22.445,-16.378 33.912,-24.137 M 204.359,520.054 c 7.222,6.854 14.793,13.682 22.846,19.912 -7.226,12.64 -14.167,25.469 -20.864,38.477 -8.17,-7.238 -15.891,-14.77 -23.197,-22.771 6.847,-12.019 13.868,-23.959 21.215,-35.618 M 181.103,494.52 c 6.018,7.391 12.352,14.623 19.078,21.381 -7.294,11.514 -14.425,23.159 -21.271,35.07 -6.791,-7.621 -13.249,-15.77 -19.286,-24.029 6.998,-10.892 14.121,-21.735 21.479,-32.422 m -19.199,-26.581 c 4.926,7.469 10.128,15.114 15.73,22.206 -7.36,10.501 -14.539,21.117 -21.504,31.915 -5.611,-7.96 -10.909,-16.156 -15.807,-24.639 7.083,-9.89 14.244,-19.81 21.581,-29.482 m -15.612,-27.015 c 3.936,7.654 8.207,15.112 12.775,22.529 -7.388,9.452 -14.503,19.288 -21.587,29.017 -4.571,-8.094 -8.827,-16.423 -12.747,-24.758 7.066,-9.046 14.27,-17.959 21.559,-26.788 m -12.477,-26.988 c 3.108,7.473 6.56,14.972 10.191,22.477 -7.285,8.672 -14.48,17.472 -21.544,26.365 -3.677,-8.044 -7.031,-16.212 -10.074,-24.508 7.056,-8.15 14.136,-16.399 21.427,-24.334 m -9.743,-26.616 c 2.391,7.37 5.053,14.79 7.941,22.147 -7.238,7.915 -14.421,15.768 -21.397,23.945 -2.804,-8.049 -5.529,-15.817 -7.752,-23.992 6.979,-7.541 14.065,-14.833 21.208,-22.1 m -7.375,-25.989 c 1.726,7.301 3.785,14.452 5.991,21.611 -7.131,7.164 -14.146,14.474 -21.166,21.746 -2.113,-7.837 -4.035,-15.572 -5.748,-23.291 6.906,-6.776 13.852,-13.531 20.923,-20.066 M 300.902,203.922 c 2.752,3.441 5.684,6.78 8.79,10.027 -8.17,4.703 -16.237,9.548 -24.291,14.467 -2.906,-3.608 -5.606,-7.275 -8.091,-11.109 7.822,-4.592 15.652,-9.07 23.592,-13.385 M 107.777,311.845 c 0.738,6.709 1.79,13.389 2.872,20.176 -6.887,5.927 -13.73,11.922 -20.523,17.928 -1.041,-7.209 -1.847,-14.448 -2.552,-21.555 6.732,-5.58 13.402,-11.088 20.203,-16.549 M 105.69,288.54 c 0.451,6.329 0.922,12.869 1.642,19.351 -6.772,5.358 -13.426,10.892 -20.139,16.287 -0.54,-6.982 -1.039,-13.811 -1.301,-20.609 6.541,-5.108 13.147,-10.128 19.798,-15.029 m -0.813,-22.288 c 0.171,6.001 0.264,12.275 0.594,18.501 -6.592,4.844 -13.196,9.795 -19.726,14.791 -0.233,-6.621 -0.249,-13.184 -0.236,-19.64 6.43,-4.569 12.877,-9.217 19.368,-13.652 m 0.271,-21.26 c -0.228,5.822 -0.269,11.671 -0.295,17.644 -6.438,4.38 -12.891,8.886 -19.296,13.435 0.063,-6.299 0.389,-12.55 0.662,-18.677 6.318,-4.131 12.578,-8.326 18.929,-12.402 m 1.185,-20.237 c -0.385,5.503 -0.79,11.118 -1.047,16.791 -6.33,3.912 -12.575,8.176 -18.854,12.208 0.362,-5.984 0.969,-11.92 1.42,-17.732 6.126,-3.753 12.261,-7.614 18.481,-11.267 m 1.954,-19.229 c -0.585,5.217 -1.2,10.546 -1.679,15.956 -6.138,3.671 -12.3,7.295 -18.406,11.087 0.623,-5.691 1.341,-11.311 2.053,-16.808 5.958,-3.5 12.005,-6.854 18.032,-10.235 m 2.599,-18.258 c -0.806,4.967 -1.464,10.003 -2.208,15.148 -5.99,3.352 -12.004,6.654 -17.957,10.072 0.72,-5.384 1.666,-10.691 2.579,-15.923 5.844,-3.115 11.692,-6.278 17.586,-9.297 m 3.135,-17.318 c -0.931,4.715 -1.787,9.5 -2.647,14.368 -5.857,2.995 -11.718,6.117 -17.512,9.15 0.919,-5.108 1.918,-10.122 3.015,-15.072 5.715,-2.821 11.42,-5.648 17.144,-8.446 m 3.579,-16.415 c -1.056,4.485 -1.979,9.028 -3.011,13.619 -5.696,2.771 -11.419,5.452 -17.07,8.31 1.156,-4.809 2.148,-9.595 3.373,-14.261 5.544,-2.725 11.111,-5.142 16.708,-7.668 m 3.943,-15.555 c -1.183,4.218 -2.244,8.51 -3.31,12.905 -5.55,2.443 -11.097,5.077 -16.636,7.542 1.207,-4.554 2.409,-9.067 3.664,-13.491 5.396,-2.333 10.854,-4.688 16.282,-6.956 M 279.362,74.013 c -0.033,2.637 0.076,5.21 0.146,7.868 -5.675,1.536 -11.341,3.039 -17.023,4.715 0.084,-2.825 0.146,-5.571 0.28,-8.269 5.503,-1.461 11.067,-2.938 16.597,-4.314 m -149.104,35.258 c -1.235,3.818 -2.54,7.658 -3.744,11.586 -5.242,2.039 -10.53,4.072 -15.799,6.206 1.395,-4.065 2.675,-8.115 4.082,-12.076 5.117,-1.855 10.281,-3.795 15.461,-5.716 m 4.662,-13.232 c -1.28,3.597 -2.689,7.232 -3.896,10.975 -5.16,1.822 -10.239,3.67 -15.395,5.625 1.405,-3.898 2.794,-7.701 4.225,-11.425 5.027,-1.689 10.059,-3.493 15.066,-5.175 m 4.808,-12.545 c -1.282,3.451 -2.661,6.887 -4.015,10.406 -5.007,1.657 -9.984,3.348 -15.003,5.092 1.413,-3.675 2.845,-7.291 4.333,-10.817 4.899,-1.593 9.804,-3.098 14.685,-4.681 m 4.913,-11.889 c -1.345,3.236 -2.71,6.539 -4.102,9.866 -4.858,1.495 -9.709,3.074 -14.621,4.601 1.471,-3.478 2.909,-6.873 4.409,-10.242 4.768,-1.395 9.555,-2.855 14.314,-4.225 m 4.992,-11.276 c -1.433,3.067 -2.861,6.176 -4.164,9.356 -4.747,1.25 -9.514,2.67 -14.255,4.153 1.463,-3.275 2.912,-6.553 4.461,-9.703 4.622,-1.359 9.306,-2.618 13.958,-3.806 m 5.038,-10.697 c -1.427,2.879 -2.78,5.875 -4.202,8.877 -4.647,1.184 -9.304,2.524 -13.899,3.739 1.503,-3.086 2.976,-6.205 4.491,-9.192 4.502,-1.167 9.044,-2.252 13.61,-3.424 m 5.067,-10.153 c -1.433,2.77 -2.798,5.603 -4.223,8.423 -4.542,1.107 -9.029,2.207 -13.554,3.363 1.473,-2.993 2.932,-5.917 4.501,-8.716 4.371,-1.042 8.834,-2.135 13.276,-3.07 m 5.074,-9.642 c -1.411,2.65 -2.8,5.333 -4.229,7.999 -4.449,0.996 -8.813,2.041 -13.22,3.015 1.488,-2.799 3.007,-5.534 4.494,-8.267 4.289,-0.924 8.626,-1.815 12.955,-2.747 m 5.066,-9.155 c -1.481,2.445 -2.846,4.99 -4.222,7.597 -4.281,0.866 -8.633,1.782 -12.9,2.696 1.526,-2.622 3.009,-5.252 4.477,-7.848 4.208,-0.805 8.426,-1.682 12.645,-2.445 m 5.04,-8.705 c -1.437,2.356 -2.782,4.792 -4.2,7.223 -4.189,0.811 -8.385,1.48 -12.59,2.398 1.445,-2.55 2.949,-5.06 4.451,-7.455 4.112,-0.798 8.204,-1.509 12.339,-2.166 m 5.01,-8.279 c -1.403,2.243 -2.809,4.556 -4.172,6.869 -4.093,0.658 -8.217,1.335 -12.292,2.123 1.475,-2.379 2.888,-4.794 4.414,-7.081 4.034,-0.717 8.006,-1.244 12.05,-1.911 m 2.29,-3.668 c -0.483,0.774 -0.968,1.55 -1.457,2.324 -4.021,0.56 -8.033,1.29 -12.008,1.877 0.916,-1.397 1.818,-2.806 2.719,-4.201 z m 417.847,532.436 c -2.408,1.15 -4.815,2.285 -7.219,3.406 2.227,-9.783 4.634,-19.504 7.219,-29.157 z m -57.644,-29.98 c 18.597,-7.344 37.444,-16.082 56.557,-25.802 -6.949,21.128 -12.942,42.698 -18.064,64.584 -19.491,8.566 -38.659,16.076 -57.516,22.306 5.576,-20.701 11.926,-41.065 19.023,-61.088 m -119.094,30.467 c 15.085,-1.466 30.612,-4.004 46.553,-7.598 -7.295,18.465 -14.025,37.188 -20.08,56.248 -16.187,2.411 -31.927,3.872 -47.194,4.165 6.414,-17.851 13.26,-35.528 20.721,-52.815 m -49.979,0.895 c 13.279,0.92 27.014,0.747 41.207,-0.161 -7.479,17.068 -14.478,34.437 -20.837,52.132 -14.365,-0.153 -28.303,-1.184 -41.757,-3.208 6.683,-16.515 13.862,-32.758 21.387,-48.763 m -43.77,-6.487 c 11.568,2.679 23.602,4.734 36.052,5.871 -7.642,15.754 -14.742,31.822 -21.484,48.101 -12.64,-2.274 -24.782,-5.323 -36.494,-9.129 6.94,-15.18 14.254,-30.131 21.926,-44.843 m -37.922,-12.255 c 9.986,4.212 20.397,7.683 31.207,10.572 -7.713,14.5 -15.029,29.245 -22.005,44.205 -10.954,-3.996 -21.469,-8.545 -31.538,-13.678 7.18,-13.881 14.578,-27.645 22.336,-41.099 m -32.531,-16.591 c 8.503,5.066 17.422,9.858 26.749,14.092 -7.802,13.24 -15.212,26.826 -22.392,40.494 -9.419,-5.162 -18.38,-10.88 -26.959,-17.02 7.248,-12.75 14.808,-25.214 22.602,-37.566 m -27.628,-19.721 c 7.177,5.821 14.732,11.372 22.696,16.623 -7.764,12.165 -15.326,24.472 -22.638,36.997 -7.974,-6.001 -15.64,-12.603 -22.797,-19.349 7.418,-11.558 14.92,-23.032 22.739,-34.271 m -23.222,-21.849 c 6.001,6.486 12.357,12.59 19.06,18.334 -7.784,11.138 -15.417,22.302 -22.751,33.741 -6.678,-6.732 -13.06,-13.609 -19.056,-20.864 7.42,-10.58 15.013,-20.898 22.747,-31.211 m -19.297,-23.19 c 4.975,6.638 10.234,13.197 15.822,19.401 -7.767,10.121 -15.341,20.298 -22.738,30.724 -5.61,-6.945 -10.838,-14.228 -15.732,-21.729 7.4,-9.584 14.992,-19.06 22.648,-28.396 M 379.429,233.534 c 5.696,2.298 11.724,4.267 18.038,5.979 -9.663,6.448 -19.201,13.101 -28.655,19.904 -5.998,-2.192 -11.661,-4.729 -17.094,-7.36 9.147,-6.349 18.384,-12.481 27.711,-18.523 M 160.361,385.699 c 3.236,6.776 6.711,13.588 10.458,20.129 -7.559,8.395 -15.079,16.785 -22.417,25.405 -3.682,-7.187 -7.078,-14.737 -10.225,-22.077 7.283,-7.999 14.677,-15.705 22.184,-23.457 M 150.23,361.674 c 2.539,6.675 5.291,13.33 8.269,20.005 -7.499,7.552 -14.825,15.365 -22.133,23.082 -2.908,-7.213 -5.564,-14.554 -7.987,-21.78 7.176,-7.24 14.497,-14.277 21.851,-21.307 m -7.824,-23.638 c 1.931,6.515 4.036,13.176 6.37,19.663 -7.341,6.904 -14.593,13.919 -21.791,20.971 -2.255,-7.01 -4.209,-14.246 -6.048,-21.28 7.042,-6.594 14.21,-13.065 21.469,-19.354 m -5.832,-23.06 c 1.435,6.388 2.935,12.834 4.729,19.171 -7.253,6.238 -14.359,12.574 -21.401,19.045 -1.666,-6.869 -3.141,-13.731 -4.376,-20.639 6.976,-5.852 13.956,-11.882 21.048,-17.577 m -4.113,-22.344 c 0.923,6.198 2.027,12.435 3.316,18.569 -7.075,5.701 -14.026,11.427 -20.977,17.295 -1.098,-6.761 -2.146,-13.314 -2.942,-19.903 6.826,-5.415 13.694,-10.718 20.603,-15.961 m -2.638,-21.543 c 0.629,5.825 1.246,11.928 2.102,17.896 -6.925,5.083 -13.734,10.386 -20.527,15.706 -0.702,-6.459 -1.27,-12.8 -1.714,-19.103 6.672,-4.865 13.374,-9.721 20.139,-14.499 m -1.378,-20.692 c 0.214,5.694 0.627,11.36 1.066,17.18 -6.778,4.618 -13.468,9.381 -20.061,14.271 -0.391,-6.117 -0.57,-12.239 -0.669,-18.28 6.54,-4.419 13.07,-8.842 19.664,-13.171 m -0.302,-19.805 c -0.01,5.384 -0.028,10.931 0.183,16.444 -6.555,4.228 -13.08,8.647 -19.585,12.958 -0.018,-5.873 -0.048,-11.643 0.219,-17.439 6.35,-3.97 12.747,-8.102 19.183,-11.963 m 0.61,-18.914 c -0.191,5.133 -0.572,10.467 -0.566,15.7 -6.409,3.873 -12.778,7.764 -19.105,11.772 0.255,-5.655 0.443,-11.101 0.97,-16.61 6.189,-3.637 12.475,-7.294 18.701,-10.862 m 1.385,-18.032 c -0.563,4.927 -0.879,9.93 -1.203,14.965 -6.245,3.475 -12.453,7.158 -18.624,10.694 0.389,-5.307 0.979,-10.596 1.602,-15.792 6.086,-3.269 12.143,-6.669 18.225,-9.867 m 2.037,-17.164 c -0.73,4.707 -1.293,9.486 -1.74,14.243 -6.072,3.12 -12.117,6.508 -18.146,9.712 0.682,-5.081 1.305,-10.069 2.131,-14.995 5.89,-3.024 11.795,-6.109 17.755,-8.96 m 83.51,-50.266 c -0.165,3.545 -0.212,7.075 -0.239,10.652 -6.105,2.456 -12.228,4.888 -18.276,7.502 0.166,-3.778 0.409,-7.529 0.689,-11.248 5.901,-2.384 11.88,-4.554 17.826,-6.906 m -77.892,18.433 c -0.935,4.234 -1.798,8.522 -2.561,12.872 -5.774,2.605 -11.473,5.241 -17.214,8.002 0.901,-4.577 1.871,-9.064 2.936,-13.492 5.61,-2.496 11.202,-4.897 16.839,-7.382 m 3.414,-14.727 c -0.978,4.004 -1.968,8.088 -2.87,12.222 -5.596,2.438 -11.191,4.773 -16.763,7.259 1.04,-4.316 2.09,-8.612 3.238,-12.791 5.419,-2.234 10.914,-4.449 16.395,-6.69 m 3.725,-13.985 c -1.053,3.783 -2.093,7.67 -3.124,11.603 -5.437,2.152 -10.88,4.344 -16.324,6.583 1.135,-4.083 2.294,-8.146 3.482,-12.125 5.294,-1.99 10.64,-4.084 15.966,-6.061 m 3.975,-13.276 c -1.212,3.626 -2.285,7.315 -3.328,11.015 -5.296,1.903 -10.615,3.86 -15.896,5.963 1.184,-3.912 2.363,-7.741 3.676,-11.488 5.186,-1.902 10.336,-3.773 15.548,-5.49 m 4.179,-12.602 c -1.205,3.423 -2.318,6.929 -3.494,10.456 -5.168,1.699 -10.319,3.574 -15.481,5.398 1.238,-3.699 2.492,-7.315 3.831,-10.891 5.019,-1.658 10.103,-3.299 15.144,-4.963 m 4.339,-11.96 c -1.251,3.268 -2.472,6.566 -3.626,9.925 -5.027,1.604 -10.066,3.227 -15.078,4.88 1.273,-3.501 2.61,-6.932 3.95,-10.324 4.904,-1.519 9.815,-3.075 14.754,-4.481 M 281.107,39.597 c -0.298,2.213 -0.638,4.497 -0.969,6.796 -5.037,0.963 -10.091,2.078 -15.12,3.041 0.399,-2.359 0.833,-4.715 1.327,-7.085 4.923,-0.918 9.865,-1.885 14.762,-2.752 M 166.438,55.95 c -1.285,2.955 -2.536,5.93 -3.799,8.951 -4.772,1.309 -9.557,2.61 -14.314,3.974 1.328,-3.182 2.758,-6.24 4.103,-9.287 4.667,-1.287 9.363,-2.514 14.01,-3.638 m 4.619,-10.251 c -1.281,2.822 -2.581,5.633 -3.853,8.507 -4.672,1.175 -9.308,2.291 -13.95,3.57 1.356,-2.973 2.811,-5.917 4.144,-8.814 4.537,-1.05 9.114,-2.141 13.659,-3.263 m 4.659,-9.738 c -1.245,2.666 -2.634,5.33 -3.886,8.083 -4.484,0.987 -9.06,2.1 -13.601,3.204 1.363,-2.868 2.694,-5.658 4.169,-8.368 4.388,-0.989 8.874,-1.978 13.318,-2.919 m 4.682,-9.262 c -1.352,2.508 -2.589,5.103 -3.903,7.686 -4.398,0.864 -8.863,1.941 -13.265,2.865 1.379,-2.675 2.802,-5.348 4.177,-7.948 4.302,-0.872 8.627,-1.718 12.991,-2.603 m 4.686,-8.808 c -1.345,2.383 -2.612,4.792 -3.905,7.311 -4.317,0.816 -8.614,1.584 -12.939,2.555 1.425,-2.539 2.756,-5.086 4.168,-7.551 4.252,-0.8 8.478,-1.543 12.676,-2.315 m 4.679,-8.383 c -1.316,2.286 -2.627,4.599 -3.897,6.958 -4.243,0.871 -8.424,1.507 -12.625,2.265 1.333,-2.436 2.778,-4.779 4.15,-7.178 4.099,-0.65 8.269,-1.419 12.372,-2.045 m 4.658,-7.98 c -1.282,2.198 -2.605,4.375 -3.879,6.622 -4.144,0.66 -8.176,1.252 -12.324,2.003 1.386,-2.296 2.709,-4.623 4.124,-6.828 4.01,-0.621 8.026,-1.169 12.079,-1.797 m 0.902,-1.498 c -0.043,0.07 -0.086,0.138 -0.129,0.207 -4.023,0.575 -8.048,1.215 -12.031,1.756 0.415,-0.649 0.823,-1.306 1.23,-1.963 z m 404.742,465.696 c -17.988,9.31 -35.791,17.597 -53.301,24.839 7.348,-19.745 15.452,-39.102 24.304,-58.02 9.604,-4.478 19.27,-9.332 28.997,-14.501 z m -91.568,-8.006 c 16.855,-5.603 34.133,-12.319 51.728,-20.197 -8.787,18.745 -16.939,37.845 -24.312,57.376 -17.588,6.908 -34.88,12.548 -51.754,16.982 7.487,-18.422 15.608,-36.485 24.338,-54.161 m -56.274,14.589 c 15.047,-2.755 30.552,-6.541 46.449,-11.461 -8.748,17.475 -16.851,35.309 -24.343,53.524 -15.922,3.816 -31.44,6.584 -46.485,8.262 7.618,-17.07 15.761,-33.851 24.379,-50.325 m -49.863,5.466 c 13.241,-0.476 26.962,-1.737 41.111,-3.966 -8.603,16.25 -16.749,32.833 -24.388,49.689 -14.139,1.289 -27.898,1.409 -41.152,0.815 7.715,-15.81 15.856,-31.348 24.429,-46.538 m 71.555,-153.186 c 12.488,-1.841 25.466,-4.556 38.929,-7.889 -11.379,12.237 -22.403,24.818 -33.104,37.77 -13.049,2.623 -25.642,4.467 -37.761,5.668 10.351,-12.159 20.992,-24.022 31.936,-35.549 M 320.779,467.733 c 9.974,3.049 20.363,5.269 31.197,7.039 -8.549,13.773 -16.646,27.959 -24.46,42.256 -10.825,-2.756 -21.236,-6.122 -31.182,-9.965 7.86,-13.315 16.016,-26.442 24.445,-39.33 m 49.262,-112.691 c 9.05,1.573 18.505,2.771 28.366,3.316 -9.967,11.085 -19.734,22.403 -29.18,34.013 -9.615,-1.315 -18.832,-3.344 -27.641,-5.616 9.273,-10.801 18.719,-21.381 28.455,-31.713 m -109.643,84.181 c 7.234,4.937 14.839,9.389 22.834,13.494 -8.355,11.62 -16.492,23.383 -24.338,35.451 -7.929,-5.04 -15.517,-10.233 -22.701,-16.085 7.833,-11.156 15.904,-22.104 24.205,-32.86 m 27.415,-103.179 c 6.112,5.389 12.505,10.524 19.276,15.435 -8.304,10.566 -16.281,21.42 -24.173,32.36 -6.746,-5.561 -13.043,-11.798 -19.081,-17.841 7.8,-10.205 15.784,-20.195 23.978,-29.954 m -70.52,64.872 c 5.066,5.772 10.434,11.422 16.107,16.723 -8.147,9.648 -16.171,19.439 -23.931,29.494 -5.607,-6.073 -10.902,-12.41 -15.856,-18.946 7.746,-9.233 15.623,-18.338 23.68,-27.271 m -16.24,-20.942 c 4.155,6.063 8.576,11.811 13.31,17.503 -8.025,8.802 -15.869,17.79 -23.626,26.847 -4.628,-6.312 -8.989,-12.8 -13.01,-19.539 7.676,-8.312 15.465,-16.609 23.326,-24.811 m -13.261,-21.432 c 3.352,6.161 6.979,12.002 10.855,17.885 -7.861,8.019 -15.677,16.083 -23.263,24.419 -3.753,-6.546 -7.273,-13.065 -10.511,-19.747 7.573,-7.58 15.125,-15.211 22.919,-22.557 m -10.654,-21.546 c 2.633,6.077 5.578,12.041 8.708,17.953 -7.693,7.272 -15.328,14.717 -22.848,22.201 -3.036,-6.398 -5.833,-12.939 -8.335,-19.657 7.428,-6.91 14.858,-13.821 22.475,-20.497 m -8.388,-21.381 c 2.048,6.035 4.37,11.83 6.842,17.798 -7.517,6.666 -15.023,13.328 -22.398,20.173 -2.331,-6.491 -4.612,-12.674 -6.442,-19.348 7.24,-6.337 14.601,-12.423 21.998,-18.623 m -6.418,-21.007 c 1.495,5.923 3.316,11.626 5.221,17.474 -7.36,6.028 -14.671,12.096 -21.918,18.327 -1.768,-6.344 -3.423,-12.596 -4.806,-18.881 7.067,-5.761 14.274,-11.398 21.503,-16.92 m -4.72,-20.478 c 1.167,5.583 2.342,11.399 3.823,17.025 -7.171,5.518 -14.37,10.961 -21.419,16.652 -1.217,-6.255 -2.435,-12.223 -3.395,-18.31 6.936,-5.225 13.957,-10.269 20.991,-15.367 m -3.255,-19.847 c 0.76,5.442 1.588,11.024 2.619,16.493 -7.063,4.95 -13.973,10.014 -20.907,15.122 -0.927,-5.84 -1.617,-11.749 -2.185,-17.655 6.762,-4.716 13.595,-9.444 20.473,-13.96 m -1.998,-19.149 c 0.345,5.335 0.875,10.681 1.585,15.908 -6.88,4.45 -13.637,9.029 -20.387,13.734 -0.61,-5.611 -0.875,-11.38 -1.15,-16.962 6.65,-4.274 13.242,-8.456 19.952,-12.68 m 92.993,-67.362 c 0.854,3.799 1.973,7.41 3.061,11.189 -7.014,3.399 -13.975,6.932 -20.894,10.514 -1.015,-3.928 -1.751,-8.032 -2.516,-11.998 6.725,-3.322 13.568,-6.44 20.349,-9.705 m -93.916,31.315 c -0.06,4.771 -0.087,9.679 -0.056,14.648 -6.494,3.716 -12.929,7.488 -19.349,11.332 0.054,-5.217 0.255,-10.417 0.486,-15.524 6.277,-3.546 12.577,-7.028 18.919,-10.456 m 0.78,-16.869 c -0.314,4.624 -0.604,9.29 -0.701,14.007 -6.304,3.331 -12.582,6.898 -18.834,10.289 0.173,-4.886 0.665,-9.933 1.121,-14.805 6.12,-3.192 12.261,-6.36 18.414,-9.491 m 1.443,-16.108 c -0.541,4.406 -0.9,8.853 -1.244,13.371 -6.114,3.034 -12.239,6.264 -18.332,9.342 0.53,-4.791 1.017,-9.453 1.658,-14.099 5.919,-2.886 11.909,-5.785 17.918,-8.614 m 2.004,-15.362 c -0.624,4.21 -1.103,8.394 -1.705,12.749 -5.942,2.866 -11.929,5.623 -17.838,8.481 0.628,-4.516 1.261,-8.951 2.109,-13.414 5.758,-2.641 11.606,-5.236 17.434,-7.816 m 2.474,-14.633 c -0.772,4.022 -1.45,8.017 -2.092,12.143 -5.815,2.558 -11.631,5.07 -17.356,7.692 0.775,-4.322 1.63,-8.569 2.483,-12.745 5.616,-2.392 11.317,-4.767 16.965,-7.09 m 2.867,-13.927 c -0.923,3.835 -1.686,7.664 -2.415,11.561 -5.617,2.291 -11.281,4.647 -16.886,6.971 0.941,-4.117 1.809,-8.129 2.793,-12.109 5.518,-2.158 10.983,-4.277 16.508,-6.423 m 82.401,-38.525 c -0.273,2.858 -0.599,5.874 -0.77,8.756 -5.644,1.776 -11.248,3.369 -16.849,5.222 0.307,-3.056 0.86,-6.25 1.177,-9.191 5.487,-1.611 10.933,-3.193 16.442,-4.787 m -75.743,12.663 c -1.016,3.469 -1.904,6.916 -2.903,10.463 -5.324,1.835 -10.654,3.809 -15.992,5.718 0.989,-3.677 2.191,-7.315 3.259,-10.921 5.202,-1.75 10.388,-3.453 15.636,-5.26 m 3.682,-11.987 c -1.038,3.257 -2.062,6.584 -3.082,9.948 -5.193,1.63 -10.37,3.375 -15.566,5.172 1.085,-3.502 2.255,-6.981 3.427,-10.369 5.044,-1.649 10.153,-3.161 15.221,-4.751 m 3.859,-11.403 c -1.134,3.121 -2.197,6.24 -3.226,9.463 -5.059,1.515 -10.077,3.094 -15.155,4.669 1.24,-3.299 2.332,-6.597 3.559,-9.847 4.907,-1.381 9.875,-2.898 14.822,-4.285 m 4,-10.841 c -1.161,2.962 -2.268,5.968 -3.342,8.999 -4.92,1.39 -9.85,2.775 -14.755,4.208 1.169,-3.162 2.407,-6.261 3.662,-9.355 4.803,-1.366 9.598,-2.594 14.435,-3.852 m 4.108,-10.319 c -1.172,2.78 -2.278,5.667 -3.431,8.564 -4.803,1.287 -9.612,2.511 -14.373,3.788 1.222,-3.012 2.541,-5.954 3.74,-8.889 4.703,-1.236 9.378,-2.293 14.064,-3.463 m 4.186,-9.811 c -1.234,2.662 -2.389,5.378 -3.494,8.144 -4.682,1.16 -9.322,2.239 -14.004,3.401 1.282,-2.836 2.508,-5.714 3.793,-8.446 4.577,-1.157 9.169,-2.109 13.705,-3.099 m 98.179,-26.374 c -0.533,1.952 -0.95,3.953 -1.486,5.995 -4.617,0.756 -9.227,1.299 -13.829,2.048 0.615,-2.103 1.223,-4.171 1.793,-6.217 4.482,-0.652 9.028,-1.217 13.522,-1.826 m -89.649,8.142 c -1.126,2.422 -2.362,4.895 -3.571,7.379 -4.449,0.831 -8.897,1.894 -13.304,2.716 1.22,-2.598 2.622,-5.094 3.847,-7.637 4.359,-0.914 8.699,-1.683 13.028,-2.458 m 4.305,-8.47 c -1.215,2.327 -2.386,4.627 -3.589,7.03 -4.309,0.772 -8.676,1.597 -12.973,2.413 1.22,-2.481 2.548,-4.895 3.852,-7.264 4.212,-0.823 8.479,-1.448 12.71,-2.179 M 260.273,0.03 c -0.865,1.866 -1.662,3.796 -2.366,5.685 -4.245,0.487 -8.537,1.103 -12.774,1.639 0.857,-2.022 1.848,-4.021 2.688,-5.997 3.719,-0.449 7.509,-0.959 11.241,-1.327 z m -51.637,0 c -1.111,1.921 -2.161,3.906 -3.277,5.858 -4.117,0.567 -8.283,1.265 -12.351,1.876 1.279,-2.247 2.597,-4.413 3.831,-6.583 2.739,-0.386 5.474,-0.774 8.206,-1.151 z m 391.429,409.263 c -7.925,4.191 -15.806,8.183 -23.627,11.98 7.403,-15.257 15.28,-30.226 23.627,-44.863 z m -114.76,5.576 c 15.219,-4.004 30.913,-8.987 47.029,-14.984 -10.055,16.423 -19.504,33.315 -28.382,50.55 -15.923,5.095 -31.445,9.069 -46.499,12.07 8.824,-16.189 18.061,-32.13 27.852,-47.636 m -50.437,9.671 c 13.4,-1.589 27.274,-4.071 41.579,-7.469 -9.707,15.346 -19.011,31.002 -27.757,47.059 -14.146,2.509 -27.895,3.908 -41.15,4.571 8.728,-15.007 17.801,-29.779 27.328,-44.161 m -44.177,2.075 c 11.683,0.346 23.828,-0.016 36.392,-1.247 -9.494,14.204 -18.612,28.711 -27.249,43.59 -12.453,0.222 -24.458,-0.291 -36.018,-1.589 8.582,-13.854 17.619,-27.442 26.875,-40.754 m -38.361,-4.03 c 10.094,1.917 20.632,3.213 31.58,3.742 -9.29,13.098 -18.208,26.498 -26.806,40.197 -10.828,-1.515 -21.255,-3.633 -31.234,-6.471 8.529,-12.757 17.323,-25.277 26.46,-37.468 m -33.059,-8.789 c 8.679,3.001 17.729,5.623 27.195,7.621 -9.07,12.089 -17.869,24.361 -26.39,36.935 -9.344,-2.892 -18.284,-6.368 -26.849,-10.215 8.436,-11.67 17.131,-23.123 26.044,-34.341 m -28.275,-12.398 c 7.379,3.813 15.115,7.349 23.244,10.553 -8.82,11.146 -17.542,22.363 -25.975,33.835 -7.987,-3.888 -15.618,-8.214 -22.885,-12.991 8.321,-10.687 16.855,-21.196 25.616,-31.397 M 267,386.356 c 6.21,4.634 12.815,8.75 19.714,12.693 -8.687,10.155 -17.181,20.472 -25.54,30.929 -6.791,-4.643 -13.278,-9.575 -19.332,-14.968 8.227,-9.684 16.568,-19.333 25.158,-28.654 m -20.195,-16.897 c 5.246,4.867 10.758,9.695 16.579,14.189 -8.572,9.165 -16.852,18.678 -25.082,28.22 -5.737,-5.119 -11.077,-10.664 -16.171,-16.292 8.072,-8.884 16.32,-17.564 24.674,-26.117 m 67.559,-90.212 c 5.015,3.391 10.35,6.502 15.919,9.441 -9.186,7.237 -18.144,14.83 -27.06,22.427 -5.335,-3.481 -10.36,-7.243 -15.172,-11.068 8.657,-7.087 17.465,-13.976 26.313,-20.8 m -98.287,53.245 c 3.578,5.284 7.365,10.552 11.381,15.745 -8.18,7.576 -16.182,15.452 -24.077,23.406 -3.893,-5.626 -7.583,-11.603 -10.933,-17.518 7.745,-7.368 15.634,-14.569 23.629,-21.633 m -11.306,-19.183 c 2.934,5.297 5.958,10.708 9.253,16 -7.923,6.99 -15.785,14.109 -23.539,21.295 -3.172,-5.653 -6.1,-11.69 -8.792,-17.627 7.583,-6.694 15.321,-13.287 23.078,-19.668 m -9.054,-19.223 c 2.229,5.442 4.719,10.77 7.398,16.013 -7.766,6.35 -15.388,12.786 -22.985,19.361 -2.521,-5.834 -4.821,-11.604 -6.926,-17.497 7.404,-6.149 14.927,-12.037 22.513,-17.877 m 40.459,-51.512 c 2.099,4.545 4.459,8.823 6.952,13.169 -7.802,5.354 -15.599,10.647 -23.263,16.274 -2.272,-4.78 -4.43,-9.566 -6.374,-14.407 7.515,-5.106 15.049,-10.097 22.685,-15.036 m -52.958,13.78 c 1.322,5.125 2.73,10.403 4.391,15.545 -7.348,5.238 -14.594,10.661 -21.847,15.993 -1.455,-5.635 -2.756,-11.184 -3.913,-16.774 7.07,-4.972 14.188,-10 21.369,-14.764 m -3.933,-18.22 c 0.968,4.979 1.928,10.166 3.182,15.149 -7.161,4.78 -14.241,9.63 -21.275,14.53 -1.116,-5.34 -1.83,-11.073 -2.708,-16.266 6.843,-4.664 13.849,-8.917 20.801,-13.413 m -2.674,-17.662 c 0.559,4.884 1.345,9.674 2.145,14.679 -6.945,4.358 -13.84,8.7 -20.705,13.198 -0.687,-5.236 -1.336,-10.377 -1.673,-15.698 6.697,-4.182 13.458,-8.135 20.233,-12.179 m -1.586,-17.059 c 0.314,4.705 0.773,9.363 1.25,14.172 -6.743,3.89 -13.463,7.907 -20.139,11.986 -0.389,-5.04 -0.68,-10.072 -0.786,-15.097 6.539,-3.735 13.068,-7.456 19.675,-11.061 m -0.653,-16.416 c 0.082,4.538 0.189,9.113 0.485,13.634 -6.529,3.68 -13.081,7.191 -19.585,10.884 -0.21,-4.76 -0.134,-9.714 -0.031,-14.476 6.36,-3.361 12.751,-6.76 19.131,-10.042 m 119.225,-65.224 c 0.845,3.03 1.926,5.905 2.975,8.884 -6.703,2.528 -13.375,5.008 -20.028,7.683 -0.947,-3.118 -1.721,-6.313 -2.428,-9.487 6.452,-2.412 12.956,-4.702 19.481,-7.08 m -118.258,34.379 c -0.292,4.104 -0.526,8.265 -0.73,12.529 -6.184,2.965 -12.368,5.939 -18.511,8.97 0.303,-4.489 0.749,-8.9 1.161,-13.23 6.021,-2.722 12.05,-5.493 18.08,-8.269 m 1.401,-14.433 c -0.527,3.986 -0.943,7.985 -1.204,11.981 -6.043,2.652 -12.02,5.337 -17.995,8.135 0.507,-4.272 0.999,-8.415 1.623,-12.618 5.84,-2.549 11.69,-5.091 17.576,-7.498 m 1.89,-13.786 c -0.547,3.755 -1.086,7.557 -1.606,11.443 -5.826,2.44 -11.664,4.898 -17.495,7.378 0.678,-4.09 1.302,-8.058 2.013,-12.025 5.682,-2.291 11.381,-4.469 17.088,-6.796 m 2.303,-13.156 c -0.615,3.543 -1.258,7.202 -1.945,10.92 -5.685,2.142 -11.345,4.407 -17.009,6.684 0.748,-3.871 1.476,-7.674 2.337,-11.45 5.509,-2.179 11.052,-4.106 16.617,-6.154 m 2.648,-12.544 c -0.741,3.413 -1.513,6.911 -2.229,10.412 -5.552,1.969 -11.052,4.013 -16.539,6.052 0.886,-3.675 1.691,-7.334 2.606,-10.901 5.384,-1.941 10.769,-3.756 16.162,-5.563 m 2.936,-11.962 c -0.893,3.245 -1.642,6.552 -2.464,9.926 -5.361,1.737 -10.741,3.643 -16.088,5.474 1.006,-3.51 1.836,-6.943 2.832,-10.371 5.232,-1.67 10.461,-3.369 15.72,-5.029 m 3.175,-11.396 c -0.961,3.135 -1.809,6.262 -2.661,9.459 -5.199,1.485 -10.443,3.348 -15.649,4.94 0.942,-3.324 1.986,-6.608 3.014,-9.863 5.078,-1.566 10.198,-2.964 15.296,-4.536 m 33.05,-18.455 c -0.813,2.732 -1.419,5.477 -2.132,8.302 -5.115,1.361 -10.208,2.618 -15.346,4.1 0.918,-2.984 1.547,-5.79 2.485,-8.654 4.977,-1.304 9.976,-2.508 14.993,-3.748 M 196.59,57.673 c -0.997,2.848 -1.976,5.67 -2.949,8.586 -4.954,1.291 -9.865,2.598 -14.823,4.012 1.096,-3.052 2.206,-6.025 3.279,-8.929 4.788,-1.223 9.651,-2.417 14.493,-3.669 m 60.406,-21.518 c -0.684,2.378 -1.166,4.66 -1.755,7.011 -4.9,1.051 -9.769,1.965 -14.618,2.983 0.678,-2.444 1.38,-4.895 2.087,-7.291 4.742,-0.908 9.512,-1.85 14.286,-2.703 m -52.998,2.268 c -1.086,2.556 -2.038,5.16 -3.132,7.795 -4.647,0.892 -9.369,2.086 -14.057,3.229 1.087,-2.752 2.257,-5.466 3.437,-8.089 4.577,-0.995 9.174,-1.926 13.752,-2.935 m 3.827,-8.954 c -1.026,2.453 -2.084,4.918 -3.195,7.431 -4.552,0.928 -9.134,1.904 -13.693,2.883 1.159,-2.62 2.369,-5.192 3.485,-7.698 4.502,-0.981 8.92,-1.722 13.403,-2.616 m 3.878,-8.535 c -1.114,2.31 -2.215,4.693 -3.235,7.087 -4.465,0.875 -8.936,1.75 -13.347,2.564 1.18,-2.461 2.372,-4.923 3.517,-7.331 4.32,-0.819 8.713,-1.54 13.065,-2.32 m 3.918,-8.141 c -1.064,2.225 -2.206,4.482 -3.265,6.759 -4.334,0.77 -8.662,1.401 -13.013,2.27 1.138,-2.39 2.39,-4.689 3.533,-6.981 4.253,-0.722 8.483,-1.362 12.745,-2.048 m 3.934,-7.762 c -1.118,2.144 -2.258,4.269 -3.28,6.445 -4.221,0.573 -8.479,1.389 -12.689,2.001 1.081,-2.252 2.356,-4.525 3.539,-6.655 4.145,-0.673 8.245,-1.244 12.43,-1.791 m 2.681,-5.001 c -0.653,1.244 -1.313,2.484 -2.023,3.74 -4.126,0.527 -8.297,1.182 -12.38,1.752 0.961,-1.866 1.989,-3.702 3.035,-5.492 z"
                   style="fill:url(#linearGradient897);stroke:none"
                   id="path899"
                   inkscape:connector-curvature="0" /></g></g></g></g></g></g></g></svg>